%TF.GenerationSoftware,KiCad,Pcbnew,5.1.7-a382d34a8~88~ubuntu18.04.1*%
%TF.CreationDate,2021-06-06T23:34:09+02:00*%
%TF.ProjectId,button-board-6x6mm-3buttons,62757474-6f6e-42d6-926f-6172642d3678,v1r1*%
%TF.SameCoordinates,Original*%
%TF.FileFunction,Legend,Bot*%
%TF.FilePolarity,Positive*%
%FSLAX46Y46*%
G04 Gerber Fmt 4.6, Leading zero omitted, Abs format (unit mm)*
G04 Created by KiCad (PCBNEW 5.1.7-a382d34a8~88~ubuntu18.04.1) date 2021-06-06 23:34:09*
%MOMM*%
%LPD*%
G01*
G04 APERTURE LIST*
%ADD10C,0.120000*%
%ADD11C,0.150000*%
%ADD12C,0.100000*%
%ADD13C,0.090000*%
%ADD14C,0.064000*%
G04 APERTURE END LIST*
D10*
X83000000Y-36100000D02*
X83000000Y-37900000D01*
X41800000Y-36100000D02*
X83000000Y-36100000D01*
X41800000Y-37900000D02*
X41800000Y-36100000D01*
X83000000Y-37900000D02*
X41800000Y-37900000D01*
D11*
X82690476Y-37404761D02*
X82547619Y-37452380D01*
X82309523Y-37452380D01*
X82214285Y-37404761D01*
X82166666Y-37357142D01*
X82119047Y-37261904D01*
X82119047Y-37166666D01*
X82166666Y-37071428D01*
X82214285Y-37023809D01*
X82309523Y-36976190D01*
X82500000Y-36928571D01*
X82595238Y-36880952D01*
X82642857Y-36833333D01*
X82690476Y-36738095D01*
X82690476Y-36642857D01*
X82642857Y-36547619D01*
X82595238Y-36500000D01*
X82500000Y-36452380D01*
X82261904Y-36452380D01*
X82119047Y-36500000D01*
X81547619Y-37452380D02*
X81642857Y-37404761D01*
X81690476Y-37357142D01*
X81738095Y-37261904D01*
X81738095Y-36976190D01*
X81690476Y-36880952D01*
X81642857Y-36833333D01*
X81547619Y-36785714D01*
X81404761Y-36785714D01*
X81309523Y-36833333D01*
X81261904Y-36880952D01*
X81214285Y-36976190D01*
X81214285Y-37261904D01*
X81261904Y-37357142D01*
X81309523Y-37404761D01*
X81404761Y-37452380D01*
X81547619Y-37452380D01*
X80642857Y-37452380D02*
X80738095Y-37404761D01*
X80785714Y-37309523D01*
X80785714Y-36452380D01*
X79833333Y-37452380D02*
X79833333Y-36452380D01*
X79833333Y-37404761D02*
X79928571Y-37452380D01*
X80119047Y-37452380D01*
X80214285Y-37404761D01*
X80261904Y-37357142D01*
X80309523Y-37261904D01*
X80309523Y-36976190D01*
X80261904Y-36880952D01*
X80214285Y-36833333D01*
X80119047Y-36785714D01*
X79928571Y-36785714D01*
X79833333Y-36833333D01*
X78976190Y-37404761D02*
X79071428Y-37452380D01*
X79261904Y-37452380D01*
X79357142Y-37404761D01*
X79404761Y-37309523D01*
X79404761Y-36928571D01*
X79357142Y-36833333D01*
X79261904Y-36785714D01*
X79071428Y-36785714D01*
X78976190Y-36833333D01*
X78928571Y-36928571D01*
X78928571Y-37023809D01*
X79404761Y-37119047D01*
X78500000Y-37452380D02*
X78500000Y-36785714D01*
X78500000Y-36976190D02*
X78452380Y-36880952D01*
X78404761Y-36833333D01*
X78309523Y-36785714D01*
X78214285Y-36785714D01*
X76690476Y-37452380D02*
X76690476Y-36928571D01*
X76738095Y-36833333D01*
X76833333Y-36785714D01*
X77023809Y-36785714D01*
X77119047Y-36833333D01*
X76690476Y-37404761D02*
X76785714Y-37452380D01*
X77023809Y-37452380D01*
X77119047Y-37404761D01*
X77166666Y-37309523D01*
X77166666Y-37214285D01*
X77119047Y-37119047D01*
X77023809Y-37071428D01*
X76785714Y-37071428D01*
X76690476Y-37023809D01*
X75119047Y-36928571D02*
X74976190Y-36976190D01*
X74928571Y-37023809D01*
X74880952Y-37119047D01*
X74880952Y-37261904D01*
X74928571Y-37357142D01*
X74976190Y-37404761D01*
X75071428Y-37452380D01*
X75452380Y-37452380D01*
X75452380Y-36452380D01*
X75119047Y-36452380D01*
X75023809Y-36500000D01*
X74976190Y-36547619D01*
X74928571Y-36642857D01*
X74928571Y-36738095D01*
X74976190Y-36833333D01*
X75023809Y-36880952D01*
X75119047Y-36928571D01*
X75452380Y-36928571D01*
X74452380Y-37452380D02*
X74452380Y-36785714D01*
X74452380Y-36976190D02*
X74404761Y-36880952D01*
X74357142Y-36833333D01*
X74261904Y-36785714D01*
X74166666Y-36785714D01*
X73833333Y-37452380D02*
X73833333Y-36785714D01*
X73833333Y-36452380D02*
X73880952Y-36500000D01*
X73833333Y-36547619D01*
X73785714Y-36500000D01*
X73833333Y-36452380D01*
X73833333Y-36547619D01*
X72928571Y-37452380D02*
X72928571Y-36452380D01*
X72928571Y-37404761D02*
X73023809Y-37452380D01*
X73214285Y-37452380D01*
X73309523Y-37404761D01*
X73357142Y-37357142D01*
X73404761Y-37261904D01*
X73404761Y-36976190D01*
X73357142Y-36880952D01*
X73309523Y-36833333D01*
X73214285Y-36785714D01*
X73023809Y-36785714D01*
X72928571Y-36833333D01*
X72023809Y-36785714D02*
X72023809Y-37595238D01*
X72071428Y-37690476D01*
X72119047Y-37738095D01*
X72214285Y-37785714D01*
X72357142Y-37785714D01*
X72452380Y-37738095D01*
X72023809Y-37404761D02*
X72119047Y-37452380D01*
X72309523Y-37452380D01*
X72404761Y-37404761D01*
X72452380Y-37357142D01*
X72500000Y-37261904D01*
X72500000Y-36976190D01*
X72452380Y-36880952D01*
X72404761Y-36833333D01*
X72309523Y-36785714D01*
X72119047Y-36785714D01*
X72023809Y-36833333D01*
X71166666Y-37404761D02*
X71261904Y-37452380D01*
X71452380Y-37452380D01*
X71547619Y-37404761D01*
X71595238Y-37309523D01*
X71595238Y-36928571D01*
X71547619Y-36833333D01*
X71452380Y-36785714D01*
X71261904Y-36785714D01*
X71166666Y-36833333D01*
X71119047Y-36928571D01*
X71119047Y-37023809D01*
X71595238Y-37119047D01*
X70071428Y-36785714D02*
X69690476Y-36785714D01*
X69928571Y-36452380D02*
X69928571Y-37309523D01*
X69880952Y-37404761D01*
X69785714Y-37452380D01*
X69690476Y-37452380D01*
X69214285Y-37452380D02*
X69309523Y-37404761D01*
X69357142Y-37357142D01*
X69404761Y-37261904D01*
X69404761Y-36976190D01*
X69357142Y-36880952D01*
X69309523Y-36833333D01*
X69214285Y-36785714D01*
X69071428Y-36785714D01*
X68976190Y-36833333D01*
X68928571Y-36880952D01*
X68880952Y-36976190D01*
X68880952Y-37261904D01*
X68928571Y-37357142D01*
X68976190Y-37404761D01*
X69071428Y-37452380D01*
X69214285Y-37452380D01*
X67166666Y-36500000D02*
X67261904Y-36452380D01*
X67404761Y-36452380D01*
X67547619Y-36500000D01*
X67642857Y-36595238D01*
X67690476Y-36690476D01*
X67738095Y-36880952D01*
X67738095Y-37023809D01*
X67690476Y-37214285D01*
X67642857Y-37309523D01*
X67547619Y-37404761D01*
X67404761Y-37452380D01*
X67309523Y-37452380D01*
X67166666Y-37404761D01*
X67119047Y-37357142D01*
X67119047Y-37023809D01*
X67309523Y-37023809D01*
X66690476Y-37452380D02*
X66690476Y-36452380D01*
X66119047Y-37452380D01*
X66119047Y-36452380D01*
X65642857Y-37452380D02*
X65642857Y-36452380D01*
X65404761Y-36452380D01*
X65261904Y-36500000D01*
X65166666Y-36595238D01*
X65119047Y-36690476D01*
X65071428Y-36880952D01*
X65071428Y-37023809D01*
X65119047Y-37214285D01*
X65166666Y-37309523D01*
X65261904Y-37404761D01*
X65404761Y-37452380D01*
X65642857Y-37452380D01*
X64119047Y-37547619D02*
X63357142Y-37547619D01*
X62976190Y-37452380D02*
X63071428Y-37404761D01*
X63119047Y-37357142D01*
X63166666Y-37261904D01*
X63166666Y-36976190D01*
X63119047Y-36880952D01*
X63071428Y-36833333D01*
X62976190Y-36785714D01*
X62833333Y-36785714D01*
X62738095Y-36833333D01*
X62690476Y-36880952D01*
X62642857Y-36976190D01*
X62642857Y-37261904D01*
X62690476Y-37357142D01*
X62738095Y-37404761D01*
X62833333Y-37452380D01*
X62976190Y-37452380D01*
X62214285Y-37452380D02*
X62214285Y-36785714D01*
X62214285Y-36976190D02*
X62166666Y-36880952D01*
X62119047Y-36833333D01*
X62023809Y-36785714D01*
X61928571Y-36785714D01*
X61833333Y-37547619D02*
X61071428Y-37547619D01*
X60214285Y-36785714D02*
X59833333Y-36785714D01*
X60071428Y-36452380D02*
X60071428Y-37309523D01*
X60023809Y-37404761D01*
X59928571Y-37452380D01*
X59833333Y-37452380D01*
X59357142Y-37452380D02*
X59452380Y-37404761D01*
X59500000Y-37357142D01*
X59547619Y-37261904D01*
X59547619Y-36976190D01*
X59500000Y-36880952D01*
X59452380Y-36833333D01*
X59357142Y-36785714D01*
X59214285Y-36785714D01*
X59119047Y-36833333D01*
X59071428Y-36880952D01*
X59023809Y-36976190D01*
X59023809Y-37261904D01*
X59071428Y-37357142D01*
X59119047Y-37404761D01*
X59214285Y-37452380D01*
X59357142Y-37452380D01*
X57976190Y-36452380D02*
X57642857Y-37452380D01*
X57309523Y-36452380D01*
X56404761Y-37357142D02*
X56452380Y-37404761D01*
X56595238Y-37452380D01*
X56690476Y-37452380D01*
X56833333Y-37404761D01*
X56928571Y-37309523D01*
X56976190Y-37214285D01*
X57023809Y-37023809D01*
X57023809Y-36880952D01*
X56976190Y-36690476D01*
X56928571Y-36595238D01*
X56833333Y-36500000D01*
X56690476Y-36452380D01*
X56595238Y-36452380D01*
X56452380Y-36500000D01*
X56404761Y-36547619D01*
X55404761Y-37357142D02*
X55452380Y-37404761D01*
X55595238Y-37452380D01*
X55690476Y-37452380D01*
X55833333Y-37404761D01*
X55928571Y-37309523D01*
X55976190Y-37214285D01*
X56023809Y-37023809D01*
X56023809Y-36880952D01*
X55976190Y-36690476D01*
X55928571Y-36595238D01*
X55833333Y-36500000D01*
X55690476Y-36452380D01*
X55595238Y-36452380D01*
X55452380Y-36500000D01*
X55404761Y-36547619D01*
X54357142Y-36785714D02*
X53976190Y-36785714D01*
X54214285Y-37452380D02*
X54214285Y-36595238D01*
X54166666Y-36500000D01*
X54071428Y-36452380D01*
X53976190Y-36452380D01*
X53500000Y-37452380D02*
X53595238Y-37404761D01*
X53642857Y-37357142D01*
X53690476Y-37261904D01*
X53690476Y-36976190D01*
X53642857Y-36880952D01*
X53595238Y-36833333D01*
X53500000Y-36785714D01*
X53357142Y-36785714D01*
X53261904Y-36833333D01*
X53214285Y-36880952D01*
X53166666Y-36976190D01*
X53166666Y-37261904D01*
X53214285Y-37357142D01*
X53261904Y-37404761D01*
X53357142Y-37452380D01*
X53500000Y-37452380D01*
X52738095Y-37452380D02*
X52738095Y-36785714D01*
X52738095Y-36976190D02*
X52690476Y-36880952D01*
X52642857Y-36833333D01*
X52547619Y-36785714D01*
X52452380Y-36785714D01*
X50976190Y-37404761D02*
X51071428Y-37452380D01*
X51261904Y-37452380D01*
X51357142Y-37404761D01*
X51404761Y-37309523D01*
X51404761Y-36928571D01*
X51357142Y-36833333D01*
X51261904Y-36785714D01*
X51071428Y-36785714D01*
X50976190Y-36833333D01*
X50928571Y-36928571D01*
X50928571Y-37023809D01*
X51404761Y-37119047D01*
X50595238Y-36785714D02*
X50357142Y-37452380D01*
X50119047Y-36785714D01*
X49357142Y-37404761D02*
X49452380Y-37452380D01*
X49642857Y-37452380D01*
X49738095Y-37404761D01*
X49785714Y-37309523D01*
X49785714Y-36928571D01*
X49738095Y-36833333D01*
X49642857Y-36785714D01*
X49452380Y-36785714D01*
X49357142Y-36833333D01*
X49309523Y-36928571D01*
X49309523Y-37023809D01*
X49785714Y-37119047D01*
X48880952Y-37452380D02*
X48880952Y-36785714D01*
X48880952Y-36976190D02*
X48833333Y-36880952D01*
X48785714Y-36833333D01*
X48690476Y-36785714D01*
X48595238Y-36785714D01*
X48357142Y-36785714D02*
X48119047Y-37452380D01*
X47880952Y-36785714D02*
X48119047Y-37452380D01*
X48214285Y-37690476D01*
X48261904Y-37738095D01*
X48357142Y-37785714D01*
X46404761Y-36928571D02*
X46261904Y-36976190D01*
X46214285Y-37023809D01*
X46166666Y-37119047D01*
X46166666Y-37261904D01*
X46214285Y-37357142D01*
X46261904Y-37404761D01*
X46357142Y-37452380D01*
X46738095Y-37452380D01*
X46738095Y-36452380D01*
X46404761Y-36452380D01*
X46309523Y-36500000D01*
X46261904Y-36547619D01*
X46214285Y-36642857D01*
X46214285Y-36738095D01*
X46261904Y-36833333D01*
X46309523Y-36880952D01*
X46404761Y-36928571D01*
X46738095Y-36928571D01*
X45309523Y-36785714D02*
X45309523Y-37452380D01*
X45738095Y-36785714D02*
X45738095Y-37309523D01*
X45690476Y-37404761D01*
X45595238Y-37452380D01*
X45452380Y-37452380D01*
X45357142Y-37404761D01*
X45309523Y-37357142D01*
X44976190Y-36785714D02*
X44595238Y-36785714D01*
X44833333Y-36452380D02*
X44833333Y-37309523D01*
X44785714Y-37404761D01*
X44690476Y-37452380D01*
X44595238Y-37452380D01*
X44404761Y-36785714D02*
X44023809Y-36785714D01*
X44261904Y-36452380D02*
X44261904Y-37309523D01*
X44214285Y-37404761D01*
X44119047Y-37452380D01*
X44023809Y-37452380D01*
X43547619Y-37452380D02*
X43642857Y-37404761D01*
X43690476Y-37357142D01*
X43738095Y-37261904D01*
X43738095Y-36976190D01*
X43690476Y-36880952D01*
X43642857Y-36833333D01*
X43547619Y-36785714D01*
X43404761Y-36785714D01*
X43309523Y-36833333D01*
X43261904Y-36880952D01*
X43214285Y-36976190D01*
X43214285Y-37261904D01*
X43261904Y-37357142D01*
X43309523Y-37404761D01*
X43404761Y-37452380D01*
X43547619Y-37452380D01*
X42785714Y-36785714D02*
X42785714Y-37452380D01*
X42785714Y-36880952D02*
X42738095Y-36833333D01*
X42642857Y-36785714D01*
X42500000Y-36785714D01*
X42404761Y-36833333D01*
X42357142Y-36928571D01*
X42357142Y-37452380D01*
X87841428Y-46956428D02*
X87841428Y-47535000D01*
X87880000Y-47650714D01*
X87957142Y-47727857D01*
X88072857Y-47766428D01*
X88150000Y-47766428D01*
X87070000Y-47766428D02*
X87455714Y-47766428D01*
X87455714Y-46956428D01*
X86337142Y-47689285D02*
X86375714Y-47727857D01*
X86491428Y-47766428D01*
X86568571Y-47766428D01*
X86684285Y-47727857D01*
X86761428Y-47650714D01*
X86800000Y-47573571D01*
X86838571Y-47419285D01*
X86838571Y-47303571D01*
X86800000Y-47149285D01*
X86761428Y-47072142D01*
X86684285Y-46995000D01*
X86568571Y-46956428D01*
X86491428Y-46956428D01*
X86375714Y-46995000D01*
X86337142Y-47033571D01*
X85758571Y-46956428D02*
X85758571Y-47535000D01*
X85797142Y-47650714D01*
X85874285Y-47727857D01*
X85990000Y-47766428D01*
X86067142Y-47766428D01*
X84987142Y-47766428D02*
X85372857Y-47766428D01*
X85372857Y-46956428D01*
X84254285Y-47689285D02*
X84292857Y-47727857D01*
X84408571Y-47766428D01*
X84485714Y-47766428D01*
X84601428Y-47727857D01*
X84678571Y-47650714D01*
X84717142Y-47573571D01*
X84755714Y-47419285D01*
X84755714Y-47303571D01*
X84717142Y-47149285D01*
X84678571Y-47072142D01*
X84601428Y-46995000D01*
X84485714Y-46956428D01*
X84408571Y-46956428D01*
X84292857Y-46995000D01*
X84254285Y-47033571D01*
X83675714Y-46956428D02*
X83675714Y-47535000D01*
X83714285Y-47650714D01*
X83791428Y-47727857D01*
X83907142Y-47766428D01*
X83984285Y-47766428D01*
X82904285Y-47766428D02*
X83290000Y-47766428D01*
X83290000Y-46956428D01*
X82171428Y-47689285D02*
X82210000Y-47727857D01*
X82325714Y-47766428D01*
X82402857Y-47766428D01*
X82518571Y-47727857D01*
X82595714Y-47650714D01*
X82634285Y-47573571D01*
X82672857Y-47419285D01*
X82672857Y-47303571D01*
X82634285Y-47149285D01*
X82595714Y-47072142D01*
X82518571Y-46995000D01*
X82402857Y-46956428D01*
X82325714Y-46956428D01*
X82210000Y-46995000D01*
X82171428Y-47033571D01*
X81592857Y-46956428D02*
X81592857Y-47535000D01*
X81631428Y-47650714D01*
X81708571Y-47727857D01*
X81824285Y-47766428D01*
X81901428Y-47766428D01*
X80821428Y-47766428D02*
X81207142Y-47766428D01*
X81207142Y-46956428D01*
X80088571Y-47689285D02*
X80127142Y-47727857D01*
X80242857Y-47766428D01*
X80320000Y-47766428D01*
X80435714Y-47727857D01*
X80512857Y-47650714D01*
X80551428Y-47573571D01*
X80590000Y-47419285D01*
X80590000Y-47303571D01*
X80551428Y-47149285D01*
X80512857Y-47072142D01*
X80435714Y-46995000D01*
X80320000Y-46956428D01*
X80242857Y-46956428D01*
X80127142Y-46995000D01*
X80088571Y-47033571D01*
X86933962Y-37366666D02*
X87933962Y-37700000D01*
X86933962Y-38033333D01*
X87838724Y-38938095D02*
X87886343Y-38890476D01*
X87933962Y-38747619D01*
X87933962Y-38652380D01*
X87886343Y-38509523D01*
X87791105Y-38414285D01*
X87695867Y-38366666D01*
X87505391Y-38319047D01*
X87362534Y-38319047D01*
X87172058Y-38366666D01*
X87076820Y-38414285D01*
X86981582Y-38509523D01*
X86933962Y-38652380D01*
X86933962Y-38747619D01*
X86981582Y-38890476D01*
X87029201Y-38938095D01*
X87838724Y-39938095D02*
X87886343Y-39890476D01*
X87933962Y-39747619D01*
X87933962Y-39652380D01*
X87886343Y-39509523D01*
X87791105Y-39414285D01*
X87695867Y-39366666D01*
X87505391Y-39319047D01*
X87362534Y-39319047D01*
X87172058Y-39366666D01*
X87076820Y-39414285D01*
X86981582Y-39509523D01*
X86933962Y-39652380D01*
X86933962Y-39747619D01*
X86981582Y-39890476D01*
X87029201Y-39938095D01*
X86933962Y-41566666D02*
X87933962Y-42233333D01*
X86933962Y-42233333D02*
X87933962Y-41566666D01*
D12*
X39138283Y-40283722D02*
X38609116Y-40655269D01*
X39232640Y-37997866D02*
X39139317Y-38051745D01*
X38609116Y-40655269D02*
X38609116Y-37862443D01*
X38167440Y-38646947D02*
X37725764Y-37243483D01*
X40207719Y-36916183D02*
X40207719Y-39532832D01*
X39138283Y-39189651D02*
X39138283Y-40283722D01*
X38692498Y-37250959D02*
X38167440Y-37549216D01*
X39138283Y-38642953D02*
X39674800Y-38301723D01*
X37725764Y-37243483D02*
X38251686Y-36956030D01*
X38167440Y-37552963D02*
X38167440Y-38646947D01*
X39231606Y-36948294D02*
X39232640Y-37997866D01*
X37280640Y-36931587D02*
X37824072Y-38659923D01*
X39138283Y-37549214D02*
X39138283Y-38642953D01*
X37725764Y-37243483D02*
X37280640Y-36931587D01*
X37280640Y-39551104D02*
X37725764Y-39921069D01*
X39674800Y-38301723D02*
X39674800Y-37231634D01*
X39761272Y-36643847D02*
X39228646Y-36946402D01*
X39674800Y-38301723D02*
X39232640Y-37997866D01*
X39674800Y-37231634D02*
X40207719Y-36916183D01*
X39666215Y-39908313D02*
X39234197Y-39611425D01*
X38609116Y-37862443D02*
X39138283Y-37549214D01*
X38150901Y-39688703D02*
X38160544Y-39683432D01*
X39674800Y-39907014D02*
X39674800Y-38836600D01*
X39232783Y-39147094D02*
X39233233Y-39604455D01*
X37725764Y-39921069D02*
X38167440Y-39193799D01*
X40207719Y-39532832D02*
X39674800Y-39907014D01*
X37725764Y-39921069D02*
X38150901Y-39688703D01*
X37803150Y-36655932D02*
X37280640Y-36931578D01*
X40207719Y-36916184D02*
X39761272Y-36643847D01*
X38167440Y-40288169D02*
X38609116Y-40655269D01*
X38167440Y-39193799D02*
X38167440Y-40288169D01*
X38609116Y-37862443D02*
X38167440Y-37552963D01*
X39228646Y-36946402D02*
X39674800Y-37231634D01*
X37824072Y-38659923D02*
X37280640Y-39551104D01*
X39138283Y-37549214D02*
X38692498Y-37250959D01*
X38251686Y-36956030D02*
X37803150Y-36655932D01*
X38255849Y-36962844D02*
X38397821Y-37413976D01*
X39674800Y-38836600D02*
X39138283Y-39189651D01*
D11*
X48214285Y-39952380D02*
X48785714Y-39952380D01*
X48500000Y-39952380D02*
X48500000Y-38952380D01*
X48595238Y-39095238D01*
X48690476Y-39190476D01*
X48785714Y-39238095D01*
X58785714Y-39047619D02*
X58738095Y-39000000D01*
X58642857Y-38952380D01*
X58404761Y-38952380D01*
X58309523Y-39000000D01*
X58261904Y-39047619D01*
X58214285Y-39142857D01*
X58214285Y-39238095D01*
X58261904Y-39380952D01*
X58833333Y-39952380D01*
X58214285Y-39952380D01*
X68833333Y-38952380D02*
X68214285Y-38952380D01*
X68547619Y-39333333D01*
X68404761Y-39333333D01*
X68309523Y-39380952D01*
X68261904Y-39428571D01*
X68214285Y-39523809D01*
X68214285Y-39761904D01*
X68261904Y-39857142D01*
X68309523Y-39904761D01*
X68404761Y-39952380D01*
X68690476Y-39952380D01*
X68785714Y-39904761D01*
X68833333Y-39857142D01*
X80014285Y-39852380D02*
X80585714Y-39852380D01*
X80300000Y-39852380D02*
X80300000Y-38852380D01*
X80395238Y-38995238D01*
X80490476Y-39090476D01*
X80585714Y-39138095D01*
X80585714Y-41547619D02*
X80538095Y-41500000D01*
X80442857Y-41452380D01*
X80204761Y-41452380D01*
X80109523Y-41500000D01*
X80061904Y-41547619D01*
X80014285Y-41642857D01*
X80014285Y-41738095D01*
X80061904Y-41880952D01*
X80633333Y-42452380D01*
X80014285Y-42452380D01*
X80633333Y-44152380D02*
X80014285Y-44152380D01*
X80347619Y-44533333D01*
X80204761Y-44533333D01*
X80109523Y-44580952D01*
X80061904Y-44628571D01*
X80014285Y-44723809D01*
X80014285Y-44961904D01*
X80061904Y-45057142D01*
X80109523Y-45104761D01*
X80204761Y-45152380D01*
X80490476Y-45152380D01*
X80585714Y-45104761D01*
X80633333Y-45057142D01*
D13*
X75242857Y-46561904D02*
X74747619Y-46561904D01*
X75014285Y-46866666D01*
X74900000Y-46866666D01*
X74823809Y-46904761D01*
X74785714Y-46942857D01*
X74747619Y-47019047D01*
X74747619Y-47209523D01*
X74785714Y-47285714D01*
X74823809Y-47323809D01*
X74900000Y-47361904D01*
X75128571Y-47361904D01*
X75204761Y-47323809D01*
X75242857Y-47285714D01*
X73795238Y-47361904D02*
X73795238Y-46561904D01*
X73795238Y-46866666D02*
X73719047Y-46828571D01*
X73566666Y-46828571D01*
X73490476Y-46866666D01*
X73452380Y-46904761D01*
X73414285Y-46980952D01*
X73414285Y-47209523D01*
X73452380Y-47285714D01*
X73490476Y-47323809D01*
X73566666Y-47361904D01*
X73719047Y-47361904D01*
X73795238Y-47323809D01*
X72728571Y-46828571D02*
X72728571Y-47361904D01*
X73071428Y-46828571D02*
X73071428Y-47247619D01*
X73033333Y-47323809D01*
X72957142Y-47361904D01*
X72842857Y-47361904D01*
X72766666Y-47323809D01*
X72728571Y-47285714D01*
X72461904Y-46828571D02*
X72157142Y-46828571D01*
X72347619Y-46561904D02*
X72347619Y-47247619D01*
X72309523Y-47323809D01*
X72233333Y-47361904D01*
X72157142Y-47361904D01*
X72004761Y-46828571D02*
X71700000Y-46828571D01*
X71890476Y-46561904D02*
X71890476Y-47247619D01*
X71852380Y-47323809D01*
X71776190Y-47361904D01*
X71700000Y-47361904D01*
X71319047Y-47361904D02*
X71395238Y-47323809D01*
X71433333Y-47285714D01*
X71471428Y-47209523D01*
X71471428Y-46980952D01*
X71433333Y-46904761D01*
X71395238Y-46866666D01*
X71319047Y-46828571D01*
X71204761Y-46828571D01*
X71128571Y-46866666D01*
X71090476Y-46904761D01*
X71052380Y-46980952D01*
X71052380Y-47209523D01*
X71090476Y-47285714D01*
X71128571Y-47323809D01*
X71204761Y-47361904D01*
X71319047Y-47361904D01*
X70709523Y-46828571D02*
X70709523Y-47361904D01*
X70709523Y-46904761D02*
X70671428Y-46866666D01*
X70595238Y-46828571D01*
X70480952Y-46828571D01*
X70404761Y-46866666D01*
X70366666Y-46942857D01*
X70366666Y-47361904D01*
X70023809Y-47323809D02*
X69947619Y-47361904D01*
X69795238Y-47361904D01*
X69719047Y-47323809D01*
X69680952Y-47247619D01*
X69680952Y-47209523D01*
X69719047Y-47133333D01*
X69795238Y-47095238D01*
X69909523Y-47095238D01*
X69985714Y-47057142D01*
X70023809Y-46980952D01*
X70023809Y-46942857D01*
X69985714Y-46866666D01*
X69909523Y-46828571D01*
X69795238Y-46828571D01*
X69719047Y-46866666D01*
X68500000Y-47666666D02*
X68538095Y-47628571D01*
X68614285Y-47514285D01*
X68652380Y-47438095D01*
X68690476Y-47323809D01*
X68728571Y-47133333D01*
X68728571Y-46980952D01*
X68690476Y-46790476D01*
X68652380Y-46676190D01*
X68614285Y-46600000D01*
X68538095Y-46485714D01*
X68500000Y-46447619D01*
X67852380Y-46561904D02*
X68004761Y-46561904D01*
X68080952Y-46600000D01*
X68119047Y-46638095D01*
X68195238Y-46752380D01*
X68233333Y-46904761D01*
X68233333Y-47209523D01*
X68195238Y-47285714D01*
X68157142Y-47323809D01*
X68080952Y-47361904D01*
X67928571Y-47361904D01*
X67852380Y-47323809D01*
X67814285Y-47285714D01*
X67776190Y-47209523D01*
X67776190Y-47019047D01*
X67814285Y-46942857D01*
X67852380Y-46904761D01*
X67928571Y-46866666D01*
X68080952Y-46866666D01*
X68157142Y-46904761D01*
X68195238Y-46942857D01*
X68233333Y-47019047D01*
X67509523Y-47361904D02*
X67090476Y-46828571D01*
X67509523Y-46828571D02*
X67090476Y-47361904D01*
X66442857Y-46561904D02*
X66595238Y-46561904D01*
X66671428Y-46600000D01*
X66709523Y-46638095D01*
X66785714Y-46752380D01*
X66823809Y-46904761D01*
X66823809Y-47209523D01*
X66785714Y-47285714D01*
X66747619Y-47323809D01*
X66671428Y-47361904D01*
X66519047Y-47361904D01*
X66442857Y-47323809D01*
X66404761Y-47285714D01*
X66366666Y-47209523D01*
X66366666Y-47019047D01*
X66404761Y-46942857D01*
X66442857Y-46904761D01*
X66519047Y-46866666D01*
X66671428Y-46866666D01*
X66747619Y-46904761D01*
X66785714Y-46942857D01*
X66823809Y-47019047D01*
X66100000Y-47666666D02*
X66061904Y-47628571D01*
X65985714Y-47514285D01*
X65947619Y-47438095D01*
X65909523Y-47323809D01*
X65871428Y-47133333D01*
X65871428Y-46980952D01*
X65909523Y-46790476D01*
X65947619Y-46676190D01*
X65985714Y-46600000D01*
X66061904Y-46485714D01*
X66100000Y-46447619D01*
X65452380Y-47323809D02*
X65452380Y-47361904D01*
X65490476Y-47438095D01*
X65528571Y-47476190D01*
X64119047Y-46561904D02*
X64500000Y-46561904D01*
X64538095Y-46942857D01*
X64500000Y-46904761D01*
X64423809Y-46866666D01*
X64233333Y-46866666D01*
X64157142Y-46904761D01*
X64119047Y-46942857D01*
X64080952Y-47019047D01*
X64080952Y-47209523D01*
X64119047Y-47285714D01*
X64157142Y-47323809D01*
X64233333Y-47361904D01*
X64423809Y-47361904D01*
X64500000Y-47323809D01*
X64538095Y-47285714D01*
X63776190Y-46638095D02*
X63738095Y-46600000D01*
X63661904Y-46561904D01*
X63471428Y-46561904D01*
X63395238Y-46600000D01*
X63357142Y-46638095D01*
X63319047Y-46714285D01*
X63319047Y-46790476D01*
X63357142Y-46904761D01*
X63814285Y-47361904D01*
X63319047Y-47361904D01*
X63052380Y-47361904D02*
X62633333Y-46828571D01*
X63052380Y-46828571D02*
X62633333Y-47361904D01*
X61909523Y-47361904D02*
X62366666Y-47361904D01*
X62138095Y-47361904D02*
X62138095Y-46561904D01*
X62214285Y-46676190D01*
X62290476Y-46752380D01*
X62366666Y-46790476D01*
X61604761Y-46638095D02*
X61566666Y-46600000D01*
X61490476Y-46561904D01*
X61300000Y-46561904D01*
X61223809Y-46600000D01*
X61185714Y-46638095D01*
X61147619Y-46714285D01*
X61147619Y-46790476D01*
X61185714Y-46904761D01*
X61642857Y-47361904D01*
X61147619Y-47361904D01*
X60804761Y-47361904D02*
X60804761Y-46828571D01*
X60804761Y-46904761D02*
X60766666Y-46866666D01*
X60690476Y-46828571D01*
X60576190Y-46828571D01*
X60500000Y-46866666D01*
X60461904Y-46942857D01*
X60461904Y-47361904D01*
X60461904Y-46942857D02*
X60423809Y-46866666D01*
X60347619Y-46828571D01*
X60233333Y-46828571D01*
X60157142Y-46866666D01*
X60119047Y-46942857D01*
X60119047Y-47361904D01*
X59738095Y-47361904D02*
X59738095Y-46828571D01*
X59738095Y-46904761D02*
X59700000Y-46866666D01*
X59623809Y-46828571D01*
X59509523Y-46828571D01*
X59433333Y-46866666D01*
X59395238Y-46942857D01*
X59395238Y-47361904D01*
X59395238Y-46942857D02*
X59357142Y-46866666D01*
X59280952Y-46828571D01*
X59166666Y-46828571D01*
X59090476Y-46866666D01*
X59052380Y-46942857D01*
X59052380Y-47361904D01*
X58633333Y-47323809D02*
X58633333Y-47361904D01*
X58671428Y-47438095D01*
X58709523Y-47476190D01*
X57680952Y-47361904D02*
X57680952Y-46561904D01*
X57338095Y-47361904D02*
X57338095Y-46942857D01*
X57376190Y-46866666D01*
X57452380Y-46828571D01*
X57566666Y-46828571D01*
X57642857Y-46866666D01*
X57680952Y-46904761D01*
X56842857Y-47361904D02*
X56919047Y-47323809D01*
X56957142Y-47285714D01*
X56995238Y-47209523D01*
X56995238Y-46980952D01*
X56957142Y-46904761D01*
X56919047Y-46866666D01*
X56842857Y-46828571D01*
X56728571Y-46828571D01*
X56652380Y-46866666D01*
X56614285Y-46904761D01*
X56576190Y-46980952D01*
X56576190Y-47209523D01*
X56614285Y-47285714D01*
X56652380Y-47323809D01*
X56728571Y-47361904D01*
X56842857Y-47361904D01*
X56119047Y-47361904D02*
X56195238Y-47323809D01*
X56233333Y-47247619D01*
X56233333Y-46561904D01*
X55509523Y-47323809D02*
X55585714Y-47361904D01*
X55738095Y-47361904D01*
X55814285Y-47323809D01*
X55852380Y-47247619D01*
X55852380Y-46942857D01*
X55814285Y-46866666D01*
X55738095Y-46828571D01*
X55585714Y-46828571D01*
X55509523Y-46866666D01*
X55471428Y-46942857D01*
X55471428Y-47019047D01*
X55852380Y-47095238D01*
X55166666Y-47323809D02*
X55090476Y-47361904D01*
X54938095Y-47361904D01*
X54861904Y-47323809D01*
X54823809Y-47247619D01*
X54823809Y-47209523D01*
X54861904Y-47133333D01*
X54938095Y-47095238D01*
X55052380Y-47095238D01*
X55128571Y-47057142D01*
X55166666Y-46980952D01*
X55166666Y-46942857D01*
X55128571Y-46866666D01*
X55052380Y-46828571D01*
X54938095Y-46828571D01*
X54861904Y-46866666D01*
X53528571Y-47361904D02*
X53528571Y-46561904D01*
X53528571Y-47323809D02*
X53604761Y-47361904D01*
X53757142Y-47361904D01*
X53833333Y-47323809D01*
X53871428Y-47285714D01*
X53909523Y-47209523D01*
X53909523Y-46980952D01*
X53871428Y-46904761D01*
X53833333Y-46866666D01*
X53757142Y-46828571D01*
X53604761Y-46828571D01*
X53528571Y-46866666D01*
X53147619Y-46942857D02*
X52538095Y-46942857D01*
X52538095Y-47171428D02*
X53147619Y-47171428D01*
X52233333Y-46561904D02*
X51738095Y-46561904D01*
X52004761Y-46866666D01*
X51890476Y-46866666D01*
X51814285Y-46904761D01*
X51776190Y-46942857D01*
X51738095Y-47019047D01*
X51738095Y-47209523D01*
X51776190Y-47285714D01*
X51814285Y-47323809D01*
X51890476Y-47361904D01*
X52119047Y-47361904D01*
X52195238Y-47323809D01*
X52233333Y-47285714D01*
X51395238Y-47285714D02*
X51357142Y-47323809D01*
X51395238Y-47361904D01*
X51433333Y-47323809D01*
X51395238Y-47285714D01*
X51395238Y-47361904D01*
X51090476Y-46561904D02*
X50595238Y-46561904D01*
X50861904Y-46866666D01*
X50747619Y-46866666D01*
X50671428Y-46904761D01*
X50633333Y-46942857D01*
X50595238Y-47019047D01*
X50595238Y-47209523D01*
X50633333Y-47285714D01*
X50671428Y-47323809D01*
X50747619Y-47361904D01*
X50976190Y-47361904D01*
X51052380Y-47323809D01*
X51090476Y-47285714D01*
X50252380Y-47361904D02*
X50252380Y-46828571D01*
X50252380Y-46904761D02*
X50214285Y-46866666D01*
X50138095Y-46828571D01*
X50023809Y-46828571D01*
X49947619Y-46866666D01*
X49909523Y-46942857D01*
X49909523Y-47361904D01*
X49909523Y-46942857D02*
X49871428Y-46866666D01*
X49795238Y-46828571D01*
X49680952Y-46828571D01*
X49604761Y-46866666D01*
X49566666Y-46942857D01*
X49566666Y-47361904D01*
X49185714Y-47361904D02*
X49185714Y-46828571D01*
X49185714Y-46904761D02*
X49147619Y-46866666D01*
X49071428Y-46828571D01*
X48957142Y-46828571D01*
X48880952Y-46866666D01*
X48842857Y-46942857D01*
X48842857Y-47361904D01*
X48842857Y-46942857D02*
X48804761Y-46866666D01*
X48728571Y-46828571D01*
X48614285Y-46828571D01*
X48538095Y-46866666D01*
X48500000Y-46942857D01*
X48500000Y-47361904D01*
X48080952Y-47323809D02*
X48080952Y-47361904D01*
X48119047Y-47438095D01*
X48157142Y-47476190D01*
X46785714Y-47361904D02*
X46785714Y-46561904D01*
X46785714Y-47323809D02*
X46861904Y-47361904D01*
X47014285Y-47361904D01*
X47090476Y-47323809D01*
X47128571Y-47285714D01*
X47166666Y-47209523D01*
X47166666Y-46980952D01*
X47128571Y-46904761D01*
X47090476Y-46866666D01*
X47014285Y-46828571D01*
X46861904Y-46828571D01*
X46785714Y-46866666D01*
X46404761Y-47361904D02*
X46404761Y-46828571D01*
X46404761Y-46561904D02*
X46442857Y-46600000D01*
X46404761Y-46638095D01*
X46366666Y-46600000D01*
X46404761Y-46561904D01*
X46404761Y-46638095D01*
X46061904Y-47323809D02*
X45985714Y-47361904D01*
X45833333Y-47361904D01*
X45757142Y-47323809D01*
X45719047Y-47247619D01*
X45719047Y-47209523D01*
X45757142Y-47133333D01*
X45833333Y-47095238D01*
X45947619Y-47095238D01*
X46023809Y-47057142D01*
X46061904Y-46980952D01*
X46061904Y-46942857D01*
X46023809Y-46866666D01*
X45947619Y-46828571D01*
X45833333Y-46828571D01*
X45757142Y-46866666D01*
X45490476Y-46828571D02*
X45185714Y-46828571D01*
X45376190Y-46561904D02*
X45376190Y-47247619D01*
X45338095Y-47323809D01*
X45261904Y-47361904D01*
X45185714Y-47361904D01*
X44576190Y-47361904D02*
X44576190Y-46942857D01*
X44614285Y-46866666D01*
X44690476Y-46828571D01*
X44842857Y-46828571D01*
X44919047Y-46866666D01*
X44576190Y-47323809D02*
X44652380Y-47361904D01*
X44842857Y-47361904D01*
X44919047Y-47323809D01*
X44957142Y-47247619D01*
X44957142Y-47171428D01*
X44919047Y-47095238D01*
X44842857Y-47057142D01*
X44652380Y-47057142D01*
X44576190Y-47019047D01*
X44195238Y-46828571D02*
X44195238Y-47361904D01*
X44195238Y-46904761D02*
X44157142Y-46866666D01*
X44080952Y-46828571D01*
X43966666Y-46828571D01*
X43890476Y-46866666D01*
X43852380Y-46942857D01*
X43852380Y-47361904D01*
X43128571Y-47323809D02*
X43204761Y-47361904D01*
X43357142Y-47361904D01*
X43433333Y-47323809D01*
X43471428Y-47285714D01*
X43509523Y-47209523D01*
X43509523Y-46980952D01*
X43471428Y-46904761D01*
X43433333Y-46866666D01*
X43357142Y-46828571D01*
X43204761Y-46828571D01*
X43128571Y-46866666D01*
X42480952Y-47323809D02*
X42557142Y-47361904D01*
X42709523Y-47361904D01*
X42785714Y-47323809D01*
X42823809Y-47247619D01*
X42823809Y-46942857D01*
X42785714Y-46866666D01*
X42709523Y-46828571D01*
X42557142Y-46828571D01*
X42480952Y-46866666D01*
X42442857Y-46942857D01*
X42442857Y-47019047D01*
X42823809Y-47095238D01*
X42100000Y-46942857D02*
X41490476Y-46942857D01*
X41490476Y-47171428D02*
X42100000Y-47171428D01*
X41185714Y-46561904D02*
X40690476Y-46561904D01*
X40957142Y-46866666D01*
X40842857Y-46866666D01*
X40766666Y-46904761D01*
X40728571Y-46942857D01*
X40690476Y-47019047D01*
X40690476Y-47209523D01*
X40728571Y-47285714D01*
X40766666Y-47323809D01*
X40842857Y-47361904D01*
X41071428Y-47361904D01*
X41147619Y-47323809D01*
X41185714Y-47285714D01*
X40004761Y-46561904D02*
X40157142Y-46561904D01*
X40233333Y-46600000D01*
X40271428Y-46638095D01*
X40347619Y-46752380D01*
X40385714Y-46904761D01*
X40385714Y-47209523D01*
X40347619Y-47285714D01*
X40309523Y-47323809D01*
X40233333Y-47361904D01*
X40080952Y-47361904D01*
X40004761Y-47323809D01*
X39966666Y-47285714D01*
X39928571Y-47209523D01*
X39928571Y-47019047D01*
X39966666Y-46942857D01*
X40004761Y-46904761D01*
X40080952Y-46866666D01*
X40233333Y-46866666D01*
X40309523Y-46904761D01*
X40347619Y-46942857D01*
X40385714Y-47019047D01*
X39585714Y-47361904D02*
X39585714Y-46828571D01*
X39585714Y-46904761D02*
X39547619Y-46866666D01*
X39471428Y-46828571D01*
X39357142Y-46828571D01*
X39280952Y-46866666D01*
X39242857Y-46942857D01*
X39242857Y-47361904D01*
X39242857Y-46942857D02*
X39204761Y-46866666D01*
X39128571Y-46828571D01*
X39014285Y-46828571D01*
X38938095Y-46866666D01*
X38900000Y-46942857D01*
X38900000Y-47361904D01*
X38519047Y-47361904D02*
X38519047Y-46828571D01*
X38519047Y-46904761D02*
X38480952Y-46866666D01*
X38404761Y-46828571D01*
X38290476Y-46828571D01*
X38214285Y-46866666D01*
X38176190Y-46942857D01*
X38176190Y-47361904D01*
X38176190Y-46942857D02*
X38138095Y-46866666D01*
X38061904Y-46828571D01*
X37947619Y-46828571D01*
X37871428Y-46866666D01*
X37833333Y-46942857D01*
X37833333Y-47361904D01*
D10*
%TO.C,REF\u002A\u002A*%
X88225500Y-43226000D02*
X86739600Y-43251400D01*
X88225500Y-43162500D02*
X88225500Y-43226000D01*
X86726900Y-43149800D02*
X88225500Y-43162500D01*
X86904700Y-43556200D02*
X86879300Y-43657800D01*
X87793700Y-43835600D02*
X87793700Y-43594300D01*
X88225500Y-46286700D02*
X88200100Y-43124400D01*
D14*
X87768136Y-43891105D02*
X87827288Y-43861689D01*
X87827288Y-43861689D02*
X87838294Y-43802057D01*
X87773818Y-44480457D02*
X87773818Y-44702626D01*
X87773818Y-44106565D02*
X87773818Y-44246596D01*
X87651319Y-45579964D02*
X87651319Y-45716391D01*
X87651319Y-45081480D02*
X87651319Y-45346800D01*
X87038803Y-45090833D02*
X87038803Y-45226910D01*
X87038803Y-44596218D02*
X87038803Y-44840603D01*
X87590070Y-43119525D02*
X87590070Y-43318604D01*
X87528813Y-46080192D02*
X87528813Y-46298575D01*
X87345064Y-43119525D02*
X87345064Y-43326872D01*
X87283807Y-46042986D02*
X87283807Y-46298575D01*
X87345064Y-44470368D02*
X87345064Y-44516669D01*
X87345064Y-43547633D02*
X87345064Y-44248779D01*
X87345064Y-45076428D02*
X87345064Y-45345146D01*
X87345064Y-44737432D02*
X87345064Y-44840784D01*
X87345064Y-46071924D02*
X87345064Y-46298575D01*
X87345064Y-45579964D02*
X87345064Y-45782536D01*
X87406315Y-43527791D02*
X87406315Y-44245472D01*
X87406315Y-43119525D02*
X87406315Y-43325219D01*
X87144360Y-43683328D02*
X87096801Y-43726372D01*
X87096801Y-43726372D02*
X87089040Y-43789932D01*
X87089040Y-43789932D02*
X87089043Y-43796660D01*
X87741151Y-43522247D02*
X87476706Y-43522247D01*
X87089043Y-43958566D02*
X87056985Y-44017621D01*
X87056985Y-44017621D02*
X86995164Y-44044101D01*
X87301310Y-43564072D02*
X87144360Y-43683328D01*
X87406315Y-44763888D02*
X87406315Y-44851533D01*
X87406315Y-44480291D02*
X87406315Y-44534033D01*
X87590070Y-44113180D02*
X87590070Y-44238412D01*
X87590070Y-43532751D02*
X87590070Y-43698115D01*
X87406315Y-45579137D02*
X87406315Y-45808168D01*
X87406315Y-45077256D02*
X87406315Y-45344320D01*
X87632385Y-44863483D02*
X87632385Y-44862133D01*
X87933284Y-44257372D02*
X87987250Y-44292187D01*
X87987250Y-44292187D02*
X88000744Y-44350057D01*
X87630516Y-43760232D02*
X87630516Y-43891105D01*
X87742696Y-45691494D02*
X87792438Y-45651153D01*
X87792438Y-45651153D02*
X87799363Y-45597051D01*
X87142928Y-45690144D02*
X87343135Y-45802130D01*
X86898504Y-43777772D02*
X86904189Y-43707505D01*
X86904189Y-43707505D02*
X86923533Y-43644949D01*
X86923533Y-43644949D02*
X86959968Y-43590480D01*
X86959968Y-43590480D02*
X86988860Y-43563854D01*
X86995164Y-44044101D02*
X86932081Y-44017621D01*
X86932081Y-44017621D02*
X86898643Y-43961897D01*
X86898643Y-43961897D02*
X86898504Y-43958566D01*
X87541468Y-45810226D02*
X87742696Y-45691494D01*
X87799363Y-45571415D02*
X87086261Y-45571415D01*
X87799363Y-45597051D02*
X87799363Y-45571415D01*
X88000744Y-44350057D02*
X87989081Y-44413078D01*
X87989081Y-44413078D02*
X87948578Y-44463791D01*
X87948578Y-44463791D02*
X87933284Y-44466816D01*
X87933284Y-44466816D02*
X87866791Y-44466438D01*
X87866791Y-44466438D02*
X87800298Y-44466244D01*
X87800298Y-44466244D02*
X87733804Y-44466215D01*
X87733804Y-44466215D02*
X87667310Y-44466333D01*
X87667310Y-44466333D02*
X87600816Y-44466579D01*
X87600816Y-44466579D02*
X87534323Y-44466936D01*
X87534323Y-44466936D02*
X87467830Y-44467384D01*
X87467830Y-44467384D02*
X87401338Y-44467905D01*
X87401338Y-44467905D02*
X87334846Y-44468481D01*
X87334846Y-44468481D02*
X87268356Y-44469094D01*
X87268356Y-44469094D02*
X87224031Y-44469514D01*
X87089043Y-43796660D02*
X87089043Y-43958566D01*
X87600832Y-46040106D02*
X87537728Y-46066105D01*
X87537728Y-46066105D02*
X87472300Y-46078546D01*
X87472300Y-46078546D02*
X87452421Y-46079232D01*
X87467563Y-43119525D02*
X87467563Y-43321910D01*
X87406315Y-46083500D02*
X87406315Y-46298575D01*
X87467563Y-44788696D02*
X87467563Y-44858147D01*
X87467563Y-44472022D02*
X87467563Y-44565452D01*
X87467563Y-45586578D02*
X87467563Y-45815609D01*
X87467563Y-45074775D02*
X87467563Y-45349281D01*
X86620400Y-46320429D02*
X88277765Y-46320429D01*
X86620400Y-43077997D02*
X86620400Y-46320429D01*
X87590070Y-45077971D02*
X87590070Y-45341840D01*
X87590070Y-44475780D02*
X87590070Y-44617266D01*
X87452421Y-46079232D02*
X87385513Y-46072551D01*
X87385513Y-46072551D02*
X87320806Y-46050416D01*
X87320806Y-46050416D02*
X87295913Y-46038756D01*
X87058453Y-45920027D02*
X87002267Y-45888473D01*
X87002267Y-45888473D02*
X86950203Y-45846345D01*
X86950203Y-45846345D02*
X86911803Y-45786075D01*
X86911803Y-45786075D02*
X86899937Y-45716296D01*
X87846390Y-45917328D02*
X87600832Y-46040106D01*
X87295913Y-46038756D02*
X87058453Y-45920027D01*
X87528813Y-43119525D02*
X87528813Y-43316950D01*
X87467563Y-46097556D02*
X87467563Y-46298575D01*
X86899937Y-45307806D02*
X86932731Y-45250368D01*
X86932731Y-45250368D02*
X86995164Y-45229552D01*
X86995164Y-45229552D02*
X87056795Y-45251258D01*
X87056795Y-45251258D02*
X87086261Y-45311853D01*
X87632385Y-44862133D02*
X86897420Y-44509990D01*
X87086261Y-45311853D02*
X87086261Y-45361773D01*
X86899937Y-45716296D02*
X86899937Y-45307806D01*
X87590070Y-46061174D02*
X87590070Y-46298575D01*
X87590070Y-45587405D02*
X87590070Y-45758556D01*
X87651319Y-43531096D02*
X87651319Y-43883324D01*
X87651319Y-43119525D02*
X87651319Y-43313642D01*
X87161310Y-45584924D02*
X87161310Y-45682491D01*
X87161310Y-45085524D02*
X87161310Y-45347628D01*
X87651319Y-44471102D02*
X87651319Y-44642991D01*
X87651319Y-44115660D02*
X87651319Y-44247764D01*
X88277765Y-43077997D02*
X86620400Y-43077997D01*
X88277765Y-46320429D02*
X88277765Y-43077997D01*
X86732554Y-43119525D02*
X86732554Y-46298575D01*
X86671300Y-43119525D02*
X86671300Y-46298575D01*
X86897420Y-44257372D02*
X87933284Y-44257372D01*
X86897420Y-44509990D02*
X86897420Y-44257372D01*
X86855057Y-43119525D02*
X86855057Y-46298575D01*
X86793799Y-43119525D02*
X86793799Y-46298575D01*
X86916306Y-44016243D02*
X86916306Y-44258288D01*
X86916306Y-43119525D02*
X86916306Y-43618680D01*
X86916306Y-45046400D02*
X86916306Y-45251715D01*
X86916306Y-44517875D02*
X86916306Y-44871005D01*
X86977554Y-43119525D02*
X86977554Y-43562554D01*
X86916306Y-45801554D02*
X86916306Y-46298575D01*
X86964812Y-45072449D02*
X86914955Y-45029769D01*
X86914955Y-45029769D02*
X86901345Y-44963743D01*
X86901345Y-44963743D02*
X86901286Y-44959145D01*
X87467563Y-44106565D02*
X87467563Y-44241337D01*
X87467563Y-43530269D02*
X87467563Y-43718786D01*
X86901286Y-44959145D02*
X86916858Y-44893774D01*
X86916858Y-44893774D02*
X86964812Y-44864832D01*
X87528813Y-44121449D02*
X87528813Y-44237241D01*
X87528813Y-43529443D02*
X87528813Y-43670829D01*
X87528813Y-44817216D02*
X87528813Y-44862819D01*
X87528813Y-44475780D02*
X87528813Y-44584526D01*
X88000586Y-44821658D02*
X88000586Y-45072449D01*
X87224031Y-44469514D02*
X88000586Y-44821658D01*
X86964812Y-44864832D02*
X87632385Y-44863483D01*
X88000586Y-45072449D02*
X86964812Y-45072449D01*
X87799363Y-45297012D02*
X87835813Y-45243594D01*
X87835813Y-45243594D02*
X87889070Y-45229552D01*
X87222559Y-43119525D02*
X87222559Y-43366560D01*
X87161310Y-45982628D02*
X87161310Y-46298575D01*
X87712568Y-43119525D02*
X87712568Y-43321084D01*
X87651319Y-46026449D02*
X87651319Y-46298575D01*
X87999633Y-43810152D02*
X87995904Y-43878216D01*
X87995904Y-43878216D02*
X87980762Y-43950604D01*
X87980762Y-43950604D02*
X87953983Y-44008862D01*
X87953983Y-44008862D02*
X87906503Y-44060074D01*
X87906503Y-44060074D02*
X87842299Y-44090840D01*
X87842299Y-44090840D02*
X87776033Y-44100822D01*
X87776033Y-44100822D02*
X87761389Y-44101108D01*
X87415992Y-43335882D02*
X87753294Y-43335882D01*
X87999633Y-43578090D02*
X87999633Y-43810152D01*
X87449711Y-43760232D02*
X87485274Y-43706813D01*
X87485274Y-43706813D02*
X87538028Y-43692772D01*
X87538028Y-43692772D02*
X87602486Y-43713347D01*
X87602486Y-43713347D02*
X87630516Y-43760232D01*
X87192590Y-43404648D02*
X87249752Y-43369042D01*
X87249752Y-43369042D02*
X87310619Y-43347292D01*
X87310619Y-43347292D02*
X87376603Y-43337225D01*
X87376603Y-43337225D02*
X87415992Y-43335882D01*
X86898504Y-43958566D02*
X86898504Y-43777772D01*
X87957572Y-45837932D02*
X87957572Y-46298575D01*
X87957572Y-45070956D02*
X87957572Y-45235179D01*
X88080083Y-43119525D02*
X88080083Y-46298575D01*
X88018820Y-43119525D02*
X88018820Y-46298575D01*
X86988860Y-43563854D02*
X87192590Y-43404648D01*
X87086261Y-45571415D02*
X87086261Y-45587606D01*
X87343135Y-45802130D02*
X87402358Y-45828241D01*
X87402358Y-45828241D02*
X87453771Y-45835860D01*
X87449711Y-44101108D02*
X87449711Y-43760232D01*
X87761389Y-44101108D02*
X87449711Y-44101108D01*
X87161310Y-44639868D02*
X87161310Y-44851533D01*
X87161310Y-43689022D02*
X87161310Y-44247127D01*
X87712568Y-44108219D02*
X87712568Y-44247764D01*
X87712568Y-43526136D02*
X87712568Y-43882496D01*
X87712568Y-45081480D02*
X87712568Y-45349281D01*
X87712568Y-44472272D02*
X87712568Y-44664038D01*
X87712568Y-46004951D02*
X87712568Y-46298575D01*
X87712568Y-45579964D02*
X87712568Y-45681664D01*
X87773818Y-43531096D02*
X87773818Y-43878364D01*
X87773818Y-43119525D02*
X87773818Y-43326045D01*
X87896321Y-45077971D02*
X87896321Y-45210374D01*
X87896321Y-44475780D02*
X87896321Y-44754074D01*
X87773818Y-45575004D02*
X87773818Y-45654378D01*
X87773818Y-45075632D02*
X87773818Y-45350933D01*
X87957572Y-43119525D02*
X87957572Y-43396324D01*
X87896321Y-45905732D02*
X87896321Y-46298575D01*
X87957572Y-44452393D02*
X87957572Y-44795000D01*
X87957572Y-44023883D02*
X87957572Y-44257120D01*
X87835072Y-43119525D02*
X87835072Y-43326045D01*
X87773818Y-45967745D02*
X87773818Y-46298575D01*
X87835072Y-44476950D02*
X87835072Y-44729520D01*
X87835072Y-44099124D02*
X87835072Y-44248935D01*
X87283807Y-45576656D02*
X87283807Y-45753596D01*
X87283807Y-45081391D02*
X87283807Y-45345973D01*
X87283807Y-44699397D02*
X87283807Y-44850706D01*
X87283807Y-43579879D02*
X87283807Y-44254568D01*
X86977554Y-44562308D02*
X86977554Y-44851127D01*
X86977554Y-44051323D02*
X86977554Y-44257120D01*
X87889070Y-45229552D02*
X87951382Y-45245660D01*
X87951382Y-45245660D02*
X87992681Y-45297012D01*
X87835072Y-45939632D02*
X87835072Y-46298575D01*
X87835072Y-45082648D02*
X87835072Y-45236832D01*
X87896321Y-44076800D02*
X87896321Y-44244257D01*
X87896321Y-43119525D02*
X87896321Y-43353329D01*
X86977554Y-45877620D02*
X86977554Y-46298575D01*
X86977554Y-45081480D02*
X86977554Y-45218642D01*
X87086261Y-45587606D02*
X87092838Y-45651524D01*
X87092838Y-45651524D02*
X87142928Y-45690144D01*
X87086261Y-45361773D02*
X87799363Y-45361773D01*
X87453771Y-45835860D02*
X87516786Y-45821636D01*
X87516786Y-45821636D02*
X87541468Y-45810226D01*
X87222559Y-45575004D02*
X87222559Y-45719696D01*
X87222559Y-45078083D02*
X87222559Y-45344320D01*
X87222559Y-44671286D02*
X87222559Y-44853187D01*
X87222559Y-43641892D02*
X87222559Y-44251260D01*
X88202576Y-43119525D02*
X88202576Y-46298575D01*
X88141332Y-43119525D02*
X88141332Y-46298575D01*
X87753294Y-43335882D02*
X87821861Y-43339134D01*
X87821861Y-43339134D02*
X87885636Y-43356399D01*
X87885636Y-43356399D02*
X87935932Y-43393731D01*
X87992681Y-45297012D02*
X87992681Y-45704153D01*
X87528813Y-45575831D02*
X87528813Y-45791632D01*
X87528813Y-45076803D02*
X87528813Y-45345146D01*
X87838294Y-43615340D02*
X87827123Y-43552089D01*
X87827123Y-43552089D02*
X87766630Y-43523092D01*
X87766630Y-43523092D02*
X87741151Y-43522247D01*
X87630516Y-43891105D02*
X87768136Y-43891105D01*
X87283807Y-43119525D02*
X87283807Y-43339274D01*
X87222559Y-46011565D02*
X87222559Y-46298575D01*
X87161310Y-43119525D02*
X87161310Y-43414515D01*
X87100060Y-45941286D02*
X87100060Y-46298575D01*
X87100060Y-45581618D02*
X87100060Y-45651072D01*
X87100060Y-45079736D02*
X87100060Y-45335224D01*
X87100060Y-44620023D02*
X87100060Y-44850706D01*
X87100060Y-43719613D02*
X87100060Y-44252087D01*
X87100060Y-43119525D02*
X87100060Y-43455856D01*
X87038803Y-45913174D02*
X87038803Y-46298575D01*
X87476706Y-43522247D02*
X87412304Y-43525239D01*
X87412304Y-43525239D02*
X87347999Y-43540200D01*
X87347999Y-43540200D02*
X87301310Y-43564072D01*
X87838294Y-43802057D02*
X87838294Y-43615340D01*
X87038803Y-44029105D02*
X87038803Y-44250104D01*
X87038803Y-43119525D02*
X87038803Y-43511447D01*
X87935932Y-43393731D02*
X87972513Y-43450641D01*
X87972513Y-43450641D02*
X87993554Y-43517340D01*
X87993554Y-43517340D02*
X87999633Y-43578090D01*
X87992681Y-45704153D02*
X87983293Y-45775218D01*
X87983293Y-45775218D02*
X87950705Y-45838831D01*
X87950705Y-45838831D02*
X87902696Y-45884076D01*
X87902696Y-45884076D02*
X87846390Y-45917328D01*
X87799363Y-45361773D02*
X87799363Y-45297012D01*
%TD*%
M02*
