%TF.GenerationSoftware,KiCad,Pcbnew,5.1.7-a382d34a8~88~ubuntu18.04.1*%
%TF.CreationDate,2021-06-06T23:34:09+02:00*%
%TF.ProjectId,button-board-6x6mm-3buttons,62757474-6f6e-42d6-926f-6172642d3678,v1r1*%
%TF.SameCoordinates,Original*%
%TF.FileFunction,Copper,L2,Bot*%
%TF.FilePolarity,Positive*%
%FSLAX46Y46*%
G04 Gerber Fmt 4.6, Leading zero omitted, Abs format (unit mm)*
G04 Created by KiCad (PCBNEW 5.1.7-a382d34a8~88~ubuntu18.04.1) date 2021-06-06 23:34:09*
%MOMM*%
%LPD*%
G01*
G04 APERTURE LIST*
%TA.AperFunction,ComponentPad*%
%ADD10C,2.000000*%
%TD*%
%TA.AperFunction,ComponentPad*%
%ADD11O,1.700000X1.700000*%
%TD*%
%TA.AperFunction,ComponentPad*%
%ADD12R,1.700000X1.700000*%
%TD*%
%TA.AperFunction,ViaPad*%
%ADD13C,0.800000*%
%TD*%
%TA.AperFunction,Conductor*%
%ADD14C,0.250000*%
%TD*%
%TA.AperFunction,Conductor*%
%ADD15C,0.254000*%
%TD*%
%TA.AperFunction,Conductor*%
%ADD16C,0.100000*%
%TD*%
G04 APERTURE END LIST*
D10*
%TO.P,SW3,1*%
%TO.N,Net-(C3-Pad1)*%
X71750000Y-39750000D03*
%TO.P,SW3,2*%
%TO.N,Net-(C3-Pad2)*%
X71750000Y-44250000D03*
%TO.P,SW3,1*%
%TO.N,Net-(C3-Pad1)*%
X65250000Y-39750000D03*
%TO.P,SW3,2*%
%TO.N,Net-(C3-Pad2)*%
X65250000Y-44250000D03*
%TD*%
%TO.P,SW2,1*%
%TO.N,Net-(C2-Pad1)*%
X61750000Y-39750000D03*
%TO.P,SW2,2*%
%TO.N,Net-(C2-Pad2)*%
X61750000Y-44250000D03*
%TO.P,SW2,1*%
%TO.N,Net-(C2-Pad1)*%
X55250000Y-39750000D03*
%TO.P,SW2,2*%
%TO.N,Net-(C2-Pad2)*%
X55250000Y-44250000D03*
%TD*%
D11*
%TO.P,J1,6*%
%TO.N,Net-(C3-Pad2)*%
X82560000Y-44580000D03*
%TO.P,J1,5*%
%TO.N,GND*%
X85100000Y-44580000D03*
%TO.P,J1,4*%
%TO.N,Net-(C2-Pad2)*%
X82560000Y-42040000D03*
%TO.P,J1,3*%
%TO.N,Net-(J1-Pad3)*%
X85100000Y-42040000D03*
%TO.P,J1,2*%
%TO.N,Net-(C1-Pad2)*%
X82560000Y-39500000D03*
D12*
%TO.P,J1,1*%
%TO.N,VCC*%
X85100000Y-39500000D03*
%TD*%
D10*
%TO.P,SW1,1*%
%TO.N,Net-(C1-Pad1)*%
X51750000Y-39750000D03*
%TO.P,SW1,2*%
%TO.N,Net-(C1-Pad2)*%
X51750000Y-44250000D03*
%TO.P,SW1,1*%
%TO.N,Net-(C1-Pad1)*%
X45250000Y-39750000D03*
%TO.P,SW1,2*%
%TO.N,Net-(C1-Pad2)*%
X45250000Y-44250000D03*
%TD*%
D13*
%TO.N,GND*%
X62900000Y-37100000D03*
X53400000Y-37100000D03*
X43500000Y-37100000D03*
X81500000Y-37100000D03*
X80050000Y-37100000D03*
X73150000Y-37100000D03*
X72200000Y-37100000D03*
%TD*%
D14*
%TO.N,Net-(C3-Pad2)*%
X71750000Y-44250000D02*
X71750000Y-45750000D01*
X71750000Y-45750000D02*
X72100000Y-46100000D01*
X81040000Y-46100000D02*
X82560000Y-44580000D01*
X72100000Y-46100000D02*
X81040000Y-46100000D01*
%TD*%
D15*
%TO.N,GND*%
X87840001Y-47340000D02*
X37160000Y-47340000D01*
X37160000Y-41771620D01*
X38181220Y-41771620D01*
X38181220Y-42228380D01*
X38270329Y-42676363D01*
X38445123Y-43098354D01*
X38698886Y-43478136D01*
X39021864Y-43801114D01*
X39401646Y-44054877D01*
X39823637Y-44229671D01*
X40271620Y-44318780D01*
X40728380Y-44318780D01*
X41176363Y-44229671D01*
X41516053Y-44088967D01*
X43615000Y-44088967D01*
X43615000Y-44411033D01*
X43677832Y-44726912D01*
X43801082Y-45024463D01*
X43980013Y-45292252D01*
X44207748Y-45519987D01*
X44475537Y-45698918D01*
X44773088Y-45822168D01*
X45088967Y-45885000D01*
X45411033Y-45885000D01*
X45726912Y-45822168D01*
X46024463Y-45698918D01*
X46292252Y-45519987D01*
X46519987Y-45292252D01*
X46698918Y-45024463D01*
X46822168Y-44726912D01*
X46885000Y-44411033D01*
X46885000Y-44088967D01*
X50115000Y-44088967D01*
X50115000Y-44411033D01*
X50177832Y-44726912D01*
X50301082Y-45024463D01*
X50480013Y-45292252D01*
X50707748Y-45519987D01*
X50975537Y-45698918D01*
X51273088Y-45822168D01*
X51588967Y-45885000D01*
X51911033Y-45885000D01*
X52226912Y-45822168D01*
X52524463Y-45698918D01*
X52792252Y-45519987D01*
X53019987Y-45292252D01*
X53198918Y-45024463D01*
X53322168Y-44726912D01*
X53385000Y-44411033D01*
X53385000Y-44088967D01*
X53615000Y-44088967D01*
X53615000Y-44411033D01*
X53677832Y-44726912D01*
X53801082Y-45024463D01*
X53980013Y-45292252D01*
X54207748Y-45519987D01*
X54475537Y-45698918D01*
X54773088Y-45822168D01*
X55088967Y-45885000D01*
X55411033Y-45885000D01*
X55726912Y-45822168D01*
X56024463Y-45698918D01*
X56292252Y-45519987D01*
X56519987Y-45292252D01*
X56698918Y-45024463D01*
X56822168Y-44726912D01*
X56885000Y-44411033D01*
X56885000Y-44088967D01*
X60115000Y-44088967D01*
X60115000Y-44411033D01*
X60177832Y-44726912D01*
X60301082Y-45024463D01*
X60480013Y-45292252D01*
X60707748Y-45519987D01*
X60975537Y-45698918D01*
X61273088Y-45822168D01*
X61588967Y-45885000D01*
X61911033Y-45885000D01*
X62226912Y-45822168D01*
X62524463Y-45698918D01*
X62792252Y-45519987D01*
X63019987Y-45292252D01*
X63198918Y-45024463D01*
X63322168Y-44726912D01*
X63385000Y-44411033D01*
X63385000Y-44088967D01*
X63615000Y-44088967D01*
X63615000Y-44411033D01*
X63677832Y-44726912D01*
X63801082Y-45024463D01*
X63980013Y-45292252D01*
X64207748Y-45519987D01*
X64475537Y-45698918D01*
X64773088Y-45822168D01*
X65088967Y-45885000D01*
X65411033Y-45885000D01*
X65726912Y-45822168D01*
X66024463Y-45698918D01*
X66292252Y-45519987D01*
X66519987Y-45292252D01*
X66698918Y-45024463D01*
X66822168Y-44726912D01*
X66885000Y-44411033D01*
X66885000Y-44088967D01*
X70115000Y-44088967D01*
X70115000Y-44411033D01*
X70177832Y-44726912D01*
X70301082Y-45024463D01*
X70480013Y-45292252D01*
X70707748Y-45519987D01*
X70975537Y-45698918D01*
X70990001Y-45704909D01*
X70990001Y-45712668D01*
X70986324Y-45750000D01*
X70990001Y-45787333D01*
X71000998Y-45898986D01*
X71014180Y-45942442D01*
X71044454Y-46042246D01*
X71115026Y-46174276D01*
X71176339Y-46248985D01*
X71210000Y-46290001D01*
X71238998Y-46313799D01*
X71536196Y-46610997D01*
X71559999Y-46640001D01*
X71675724Y-46734974D01*
X71807753Y-46805546D01*
X71951014Y-46849003D01*
X72062667Y-46860000D01*
X72062675Y-46860000D01*
X72100000Y-46863676D01*
X72137325Y-46860000D01*
X81002678Y-46860000D01*
X81040000Y-46863676D01*
X81077322Y-46860000D01*
X81077333Y-46860000D01*
X81188986Y-46849003D01*
X81332247Y-46805546D01*
X81464276Y-46734974D01*
X81580001Y-46640001D01*
X81603804Y-46610997D01*
X82193592Y-46021209D01*
X82413740Y-46065000D01*
X82706260Y-46065000D01*
X82993158Y-46007932D01*
X83263411Y-45895990D01*
X83506632Y-45733475D01*
X83713475Y-45526632D01*
X83831100Y-45350594D01*
X84002412Y-45580269D01*
X84218645Y-45775178D01*
X84468748Y-45924157D01*
X84743109Y-46021481D01*
X84973000Y-45900814D01*
X84973000Y-44707000D01*
X85227000Y-44707000D01*
X85227000Y-45900814D01*
X85456891Y-46021481D01*
X85731252Y-45924157D01*
X85981355Y-45775178D01*
X86197588Y-45580269D01*
X86371641Y-45346920D01*
X86496825Y-45084099D01*
X86541476Y-44936890D01*
X86420155Y-44707000D01*
X85227000Y-44707000D01*
X84973000Y-44707000D01*
X84953000Y-44707000D01*
X84953000Y-44453000D01*
X84973000Y-44453000D01*
X84973000Y-44433000D01*
X85227000Y-44433000D01*
X85227000Y-44453000D01*
X86420155Y-44453000D01*
X86541476Y-44223110D01*
X86496825Y-44075901D01*
X86371641Y-43813080D01*
X86197588Y-43579731D01*
X85981355Y-43384822D01*
X85864466Y-43315195D01*
X86046632Y-43193475D01*
X86253475Y-42986632D01*
X86415990Y-42743411D01*
X86527932Y-42473158D01*
X86585000Y-42186260D01*
X86585000Y-41893740D01*
X86527932Y-41606842D01*
X86415990Y-41336589D01*
X86253475Y-41093368D01*
X86121620Y-40961513D01*
X86194180Y-40939502D01*
X86304494Y-40880537D01*
X86401185Y-40801185D01*
X86480537Y-40704494D01*
X86539502Y-40594180D01*
X86575812Y-40474482D01*
X86588072Y-40350000D01*
X86588072Y-38650000D01*
X86575812Y-38525518D01*
X86539502Y-38405820D01*
X86480537Y-38295506D01*
X86401185Y-38198815D01*
X86304494Y-38119463D01*
X86194180Y-38060498D01*
X86074482Y-38024188D01*
X85950000Y-38011928D01*
X84250000Y-38011928D01*
X84125518Y-38024188D01*
X84005820Y-38060498D01*
X83895506Y-38119463D01*
X83798815Y-38198815D01*
X83719463Y-38295506D01*
X83660498Y-38405820D01*
X83638487Y-38478380D01*
X83506632Y-38346525D01*
X83263411Y-38184010D01*
X82993158Y-38072068D01*
X82706260Y-38015000D01*
X82413740Y-38015000D01*
X82126842Y-38072068D01*
X81856589Y-38184010D01*
X81613368Y-38346525D01*
X81406525Y-38553368D01*
X81244010Y-38796589D01*
X81132068Y-39066842D01*
X81075000Y-39353740D01*
X81075000Y-39646260D01*
X81132068Y-39933158D01*
X81244010Y-40203411D01*
X81406525Y-40446632D01*
X81613368Y-40653475D01*
X81787760Y-40770000D01*
X81613368Y-40886525D01*
X81406525Y-41093368D01*
X81244010Y-41336589D01*
X81132068Y-41606842D01*
X81075000Y-41893740D01*
X81075000Y-42186260D01*
X81132068Y-42473158D01*
X81244010Y-42743411D01*
X81406525Y-42986632D01*
X81613368Y-43193475D01*
X81787760Y-43310000D01*
X81613368Y-43426525D01*
X81406525Y-43633368D01*
X81244010Y-43876589D01*
X81132068Y-44146842D01*
X81075000Y-44433740D01*
X81075000Y-44726260D01*
X81118791Y-44946408D01*
X80725199Y-45340000D01*
X72972239Y-45340000D01*
X73019987Y-45292252D01*
X73198918Y-45024463D01*
X73322168Y-44726912D01*
X73385000Y-44411033D01*
X73385000Y-44088967D01*
X73322168Y-43773088D01*
X73198918Y-43475537D01*
X73019987Y-43207748D01*
X72792252Y-42980013D01*
X72524463Y-42801082D01*
X72226912Y-42677832D01*
X71911033Y-42615000D01*
X71588967Y-42615000D01*
X71273088Y-42677832D01*
X70975537Y-42801082D01*
X70707748Y-42980013D01*
X70480013Y-43207748D01*
X70301082Y-43475537D01*
X70177832Y-43773088D01*
X70115000Y-44088967D01*
X66885000Y-44088967D01*
X66822168Y-43773088D01*
X66698918Y-43475537D01*
X66519987Y-43207748D01*
X66292252Y-42980013D01*
X66024463Y-42801082D01*
X65726912Y-42677832D01*
X65411033Y-42615000D01*
X65088967Y-42615000D01*
X64773088Y-42677832D01*
X64475537Y-42801082D01*
X64207748Y-42980013D01*
X63980013Y-43207748D01*
X63801082Y-43475537D01*
X63677832Y-43773088D01*
X63615000Y-44088967D01*
X63385000Y-44088967D01*
X63322168Y-43773088D01*
X63198918Y-43475537D01*
X63019987Y-43207748D01*
X62792252Y-42980013D01*
X62524463Y-42801082D01*
X62226912Y-42677832D01*
X61911033Y-42615000D01*
X61588967Y-42615000D01*
X61273088Y-42677832D01*
X60975537Y-42801082D01*
X60707748Y-42980013D01*
X60480013Y-43207748D01*
X60301082Y-43475537D01*
X60177832Y-43773088D01*
X60115000Y-44088967D01*
X56885000Y-44088967D01*
X56822168Y-43773088D01*
X56698918Y-43475537D01*
X56519987Y-43207748D01*
X56292252Y-42980013D01*
X56024463Y-42801082D01*
X55726912Y-42677832D01*
X55411033Y-42615000D01*
X55088967Y-42615000D01*
X54773088Y-42677832D01*
X54475537Y-42801082D01*
X54207748Y-42980013D01*
X53980013Y-43207748D01*
X53801082Y-43475537D01*
X53677832Y-43773088D01*
X53615000Y-44088967D01*
X53385000Y-44088967D01*
X53322168Y-43773088D01*
X53198918Y-43475537D01*
X53019987Y-43207748D01*
X52792252Y-42980013D01*
X52524463Y-42801082D01*
X52226912Y-42677832D01*
X51911033Y-42615000D01*
X51588967Y-42615000D01*
X51273088Y-42677832D01*
X50975537Y-42801082D01*
X50707748Y-42980013D01*
X50480013Y-43207748D01*
X50301082Y-43475537D01*
X50177832Y-43773088D01*
X50115000Y-44088967D01*
X46885000Y-44088967D01*
X46822168Y-43773088D01*
X46698918Y-43475537D01*
X46519987Y-43207748D01*
X46292252Y-42980013D01*
X46024463Y-42801082D01*
X45726912Y-42677832D01*
X45411033Y-42615000D01*
X45088967Y-42615000D01*
X44773088Y-42677832D01*
X44475537Y-42801082D01*
X44207748Y-42980013D01*
X43980013Y-43207748D01*
X43801082Y-43475537D01*
X43677832Y-43773088D01*
X43615000Y-44088967D01*
X41516053Y-44088967D01*
X41598354Y-44054877D01*
X41978136Y-43801114D01*
X42301114Y-43478136D01*
X42554877Y-43098354D01*
X42729671Y-42676363D01*
X42818780Y-42228380D01*
X42818780Y-41820629D01*
X46678812Y-41820629D01*
X46678812Y-42179371D01*
X46748799Y-42531221D01*
X46886084Y-42862656D01*
X47085391Y-43160940D01*
X47339060Y-43414609D01*
X47637344Y-43613916D01*
X47968779Y-43751201D01*
X48320629Y-43821188D01*
X48679371Y-43821188D01*
X49031221Y-43751201D01*
X49362656Y-43613916D01*
X49660940Y-43414609D01*
X49914609Y-43160940D01*
X50113916Y-42862656D01*
X50251201Y-42531221D01*
X50321188Y-42179371D01*
X50321188Y-41820629D01*
X56678812Y-41820629D01*
X56678812Y-42179371D01*
X56748799Y-42531221D01*
X56886084Y-42862656D01*
X57085391Y-43160940D01*
X57339060Y-43414609D01*
X57637344Y-43613916D01*
X57968779Y-43751201D01*
X58320629Y-43821188D01*
X58679371Y-43821188D01*
X59031221Y-43751201D01*
X59362656Y-43613916D01*
X59660940Y-43414609D01*
X59914609Y-43160940D01*
X60113916Y-42862656D01*
X60251201Y-42531221D01*
X60321188Y-42179371D01*
X60321188Y-41820629D01*
X66678812Y-41820629D01*
X66678812Y-42179371D01*
X66748799Y-42531221D01*
X66886084Y-42862656D01*
X67085391Y-43160940D01*
X67339060Y-43414609D01*
X67637344Y-43613916D01*
X67968779Y-43751201D01*
X68320629Y-43821188D01*
X68679371Y-43821188D01*
X69031221Y-43751201D01*
X69362656Y-43613916D01*
X69660940Y-43414609D01*
X69914609Y-43160940D01*
X70113916Y-42862656D01*
X70251201Y-42531221D01*
X70321188Y-42179371D01*
X70321188Y-41820629D01*
X70312415Y-41776521D01*
X74230979Y-41776521D01*
X74230979Y-42223479D01*
X74318176Y-42661849D01*
X74489220Y-43074785D01*
X74737536Y-43446417D01*
X75053583Y-43762464D01*
X75425215Y-44010780D01*
X75838151Y-44181824D01*
X76276521Y-44269021D01*
X76723479Y-44269021D01*
X77161849Y-44181824D01*
X77574785Y-44010780D01*
X77946417Y-43762464D01*
X78262464Y-43446417D01*
X78510780Y-43074785D01*
X78681824Y-42661849D01*
X78769021Y-42223479D01*
X78769021Y-41776521D01*
X78681824Y-41338151D01*
X78510780Y-40925215D01*
X78262464Y-40553583D01*
X77946417Y-40237536D01*
X77574785Y-39989220D01*
X77161849Y-39818176D01*
X76723479Y-39730979D01*
X76276521Y-39730979D01*
X75838151Y-39818176D01*
X75425215Y-39989220D01*
X75053583Y-40237536D01*
X74737536Y-40553583D01*
X74489220Y-40925215D01*
X74318176Y-41338151D01*
X74230979Y-41776521D01*
X70312415Y-41776521D01*
X70251201Y-41468779D01*
X70113916Y-41137344D01*
X69914609Y-40839060D01*
X69660940Y-40585391D01*
X69362656Y-40386084D01*
X69031221Y-40248799D01*
X68679371Y-40178812D01*
X68320629Y-40178812D01*
X67968779Y-40248799D01*
X67637344Y-40386084D01*
X67339060Y-40585391D01*
X67085391Y-40839060D01*
X66886084Y-41137344D01*
X66748799Y-41468779D01*
X66678812Y-41820629D01*
X60321188Y-41820629D01*
X60251201Y-41468779D01*
X60113916Y-41137344D01*
X59914609Y-40839060D01*
X59660940Y-40585391D01*
X59362656Y-40386084D01*
X59031221Y-40248799D01*
X58679371Y-40178812D01*
X58320629Y-40178812D01*
X57968779Y-40248799D01*
X57637344Y-40386084D01*
X57339060Y-40585391D01*
X57085391Y-40839060D01*
X56886084Y-41137344D01*
X56748799Y-41468779D01*
X56678812Y-41820629D01*
X50321188Y-41820629D01*
X50251201Y-41468779D01*
X50113916Y-41137344D01*
X49914609Y-40839060D01*
X49660940Y-40585391D01*
X49362656Y-40386084D01*
X49031221Y-40248799D01*
X48679371Y-40178812D01*
X48320629Y-40178812D01*
X47968779Y-40248799D01*
X47637344Y-40386084D01*
X47339060Y-40585391D01*
X47085391Y-40839060D01*
X46886084Y-41137344D01*
X46748799Y-41468779D01*
X46678812Y-41820629D01*
X42818780Y-41820629D01*
X42818780Y-41771620D01*
X42729671Y-41323637D01*
X42554877Y-40901646D01*
X42301114Y-40521864D01*
X41978136Y-40198886D01*
X41598354Y-39945123D01*
X41176363Y-39770329D01*
X40728380Y-39681220D01*
X40271620Y-39681220D01*
X39823637Y-39770329D01*
X39401646Y-39945123D01*
X39021864Y-40198886D01*
X38698886Y-40521864D01*
X38445123Y-40901646D01*
X38270329Y-41323637D01*
X38181220Y-41771620D01*
X37160000Y-41771620D01*
X37160000Y-39588967D01*
X43615000Y-39588967D01*
X43615000Y-39911033D01*
X43677832Y-40226912D01*
X43801082Y-40524463D01*
X43980013Y-40792252D01*
X44207748Y-41019987D01*
X44475537Y-41198918D01*
X44773088Y-41322168D01*
X45088967Y-41385000D01*
X45411033Y-41385000D01*
X45726912Y-41322168D01*
X46024463Y-41198918D01*
X46292252Y-41019987D01*
X46519987Y-40792252D01*
X46698918Y-40524463D01*
X46822168Y-40226912D01*
X46885000Y-39911033D01*
X46885000Y-39588967D01*
X50115000Y-39588967D01*
X50115000Y-39911033D01*
X50177832Y-40226912D01*
X50301082Y-40524463D01*
X50480013Y-40792252D01*
X50707748Y-41019987D01*
X50975537Y-41198918D01*
X51273088Y-41322168D01*
X51588967Y-41385000D01*
X51911033Y-41385000D01*
X52226912Y-41322168D01*
X52524463Y-41198918D01*
X52792252Y-41019987D01*
X53019987Y-40792252D01*
X53198918Y-40524463D01*
X53322168Y-40226912D01*
X53385000Y-39911033D01*
X53385000Y-39588967D01*
X53615000Y-39588967D01*
X53615000Y-39911033D01*
X53677832Y-40226912D01*
X53801082Y-40524463D01*
X53980013Y-40792252D01*
X54207748Y-41019987D01*
X54475537Y-41198918D01*
X54773088Y-41322168D01*
X55088967Y-41385000D01*
X55411033Y-41385000D01*
X55726912Y-41322168D01*
X56024463Y-41198918D01*
X56292252Y-41019987D01*
X56519987Y-40792252D01*
X56698918Y-40524463D01*
X56822168Y-40226912D01*
X56885000Y-39911033D01*
X56885000Y-39588967D01*
X60115000Y-39588967D01*
X60115000Y-39911033D01*
X60177832Y-40226912D01*
X60301082Y-40524463D01*
X60480013Y-40792252D01*
X60707748Y-41019987D01*
X60975537Y-41198918D01*
X61273088Y-41322168D01*
X61588967Y-41385000D01*
X61911033Y-41385000D01*
X62226912Y-41322168D01*
X62524463Y-41198918D01*
X62792252Y-41019987D01*
X63019987Y-40792252D01*
X63198918Y-40524463D01*
X63322168Y-40226912D01*
X63385000Y-39911033D01*
X63385000Y-39588967D01*
X63615000Y-39588967D01*
X63615000Y-39911033D01*
X63677832Y-40226912D01*
X63801082Y-40524463D01*
X63980013Y-40792252D01*
X64207748Y-41019987D01*
X64475537Y-41198918D01*
X64773088Y-41322168D01*
X65088967Y-41385000D01*
X65411033Y-41385000D01*
X65726912Y-41322168D01*
X66024463Y-41198918D01*
X66292252Y-41019987D01*
X66519987Y-40792252D01*
X66698918Y-40524463D01*
X66822168Y-40226912D01*
X66885000Y-39911033D01*
X66885000Y-39588967D01*
X70115000Y-39588967D01*
X70115000Y-39911033D01*
X70177832Y-40226912D01*
X70301082Y-40524463D01*
X70480013Y-40792252D01*
X70707748Y-41019987D01*
X70975537Y-41198918D01*
X71273088Y-41322168D01*
X71588967Y-41385000D01*
X71911033Y-41385000D01*
X72226912Y-41322168D01*
X72524463Y-41198918D01*
X72792252Y-41019987D01*
X73019987Y-40792252D01*
X73198918Y-40524463D01*
X73322168Y-40226912D01*
X73385000Y-39911033D01*
X73385000Y-39588967D01*
X73322168Y-39273088D01*
X73198918Y-38975537D01*
X73019987Y-38707748D01*
X72792252Y-38480013D01*
X72524463Y-38301082D01*
X72226912Y-38177832D01*
X71911033Y-38115000D01*
X71588967Y-38115000D01*
X71273088Y-38177832D01*
X70975537Y-38301082D01*
X70707748Y-38480013D01*
X70480013Y-38707748D01*
X70301082Y-38975537D01*
X70177832Y-39273088D01*
X70115000Y-39588967D01*
X66885000Y-39588967D01*
X66822168Y-39273088D01*
X66698918Y-38975537D01*
X66519987Y-38707748D01*
X66292252Y-38480013D01*
X66024463Y-38301082D01*
X65726912Y-38177832D01*
X65411033Y-38115000D01*
X65088967Y-38115000D01*
X64773088Y-38177832D01*
X64475537Y-38301082D01*
X64207748Y-38480013D01*
X63980013Y-38707748D01*
X63801082Y-38975537D01*
X63677832Y-39273088D01*
X63615000Y-39588967D01*
X63385000Y-39588967D01*
X63322168Y-39273088D01*
X63198918Y-38975537D01*
X63019987Y-38707748D01*
X62792252Y-38480013D01*
X62524463Y-38301082D01*
X62226912Y-38177832D01*
X61911033Y-38115000D01*
X61588967Y-38115000D01*
X61273088Y-38177832D01*
X60975537Y-38301082D01*
X60707748Y-38480013D01*
X60480013Y-38707748D01*
X60301082Y-38975537D01*
X60177832Y-39273088D01*
X60115000Y-39588967D01*
X56885000Y-39588967D01*
X56822168Y-39273088D01*
X56698918Y-38975537D01*
X56519987Y-38707748D01*
X56292252Y-38480013D01*
X56024463Y-38301082D01*
X55726912Y-38177832D01*
X55411033Y-38115000D01*
X55088967Y-38115000D01*
X54773088Y-38177832D01*
X54475537Y-38301082D01*
X54207748Y-38480013D01*
X53980013Y-38707748D01*
X53801082Y-38975537D01*
X53677832Y-39273088D01*
X53615000Y-39588967D01*
X53385000Y-39588967D01*
X53322168Y-39273088D01*
X53198918Y-38975537D01*
X53019987Y-38707748D01*
X52792252Y-38480013D01*
X52524463Y-38301082D01*
X52226912Y-38177832D01*
X51911033Y-38115000D01*
X51588967Y-38115000D01*
X51273088Y-38177832D01*
X50975537Y-38301082D01*
X50707748Y-38480013D01*
X50480013Y-38707748D01*
X50301082Y-38975537D01*
X50177832Y-39273088D01*
X50115000Y-39588967D01*
X46885000Y-39588967D01*
X46822168Y-39273088D01*
X46698918Y-38975537D01*
X46519987Y-38707748D01*
X46292252Y-38480013D01*
X46024463Y-38301082D01*
X45726912Y-38177832D01*
X45411033Y-38115000D01*
X45088967Y-38115000D01*
X44773088Y-38177832D01*
X44475537Y-38301082D01*
X44207748Y-38480013D01*
X43980013Y-38707748D01*
X43801082Y-38975537D01*
X43677832Y-39273088D01*
X43615000Y-39588967D01*
X37160000Y-39588967D01*
X37160000Y-36667275D01*
X37160666Y-36660487D01*
X37165301Y-36660000D01*
X87840000Y-36660000D01*
X87840001Y-47340000D01*
%TA.AperFunction,Conductor*%
D16*
G36*
X87840001Y-47340000D02*
G01*
X37160000Y-47340000D01*
X37160000Y-41771620D01*
X38181220Y-41771620D01*
X38181220Y-42228380D01*
X38270329Y-42676363D01*
X38445123Y-43098354D01*
X38698886Y-43478136D01*
X39021864Y-43801114D01*
X39401646Y-44054877D01*
X39823637Y-44229671D01*
X40271620Y-44318780D01*
X40728380Y-44318780D01*
X41176363Y-44229671D01*
X41516053Y-44088967D01*
X43615000Y-44088967D01*
X43615000Y-44411033D01*
X43677832Y-44726912D01*
X43801082Y-45024463D01*
X43980013Y-45292252D01*
X44207748Y-45519987D01*
X44475537Y-45698918D01*
X44773088Y-45822168D01*
X45088967Y-45885000D01*
X45411033Y-45885000D01*
X45726912Y-45822168D01*
X46024463Y-45698918D01*
X46292252Y-45519987D01*
X46519987Y-45292252D01*
X46698918Y-45024463D01*
X46822168Y-44726912D01*
X46885000Y-44411033D01*
X46885000Y-44088967D01*
X50115000Y-44088967D01*
X50115000Y-44411033D01*
X50177832Y-44726912D01*
X50301082Y-45024463D01*
X50480013Y-45292252D01*
X50707748Y-45519987D01*
X50975537Y-45698918D01*
X51273088Y-45822168D01*
X51588967Y-45885000D01*
X51911033Y-45885000D01*
X52226912Y-45822168D01*
X52524463Y-45698918D01*
X52792252Y-45519987D01*
X53019987Y-45292252D01*
X53198918Y-45024463D01*
X53322168Y-44726912D01*
X53385000Y-44411033D01*
X53385000Y-44088967D01*
X53615000Y-44088967D01*
X53615000Y-44411033D01*
X53677832Y-44726912D01*
X53801082Y-45024463D01*
X53980013Y-45292252D01*
X54207748Y-45519987D01*
X54475537Y-45698918D01*
X54773088Y-45822168D01*
X55088967Y-45885000D01*
X55411033Y-45885000D01*
X55726912Y-45822168D01*
X56024463Y-45698918D01*
X56292252Y-45519987D01*
X56519987Y-45292252D01*
X56698918Y-45024463D01*
X56822168Y-44726912D01*
X56885000Y-44411033D01*
X56885000Y-44088967D01*
X60115000Y-44088967D01*
X60115000Y-44411033D01*
X60177832Y-44726912D01*
X60301082Y-45024463D01*
X60480013Y-45292252D01*
X60707748Y-45519987D01*
X60975537Y-45698918D01*
X61273088Y-45822168D01*
X61588967Y-45885000D01*
X61911033Y-45885000D01*
X62226912Y-45822168D01*
X62524463Y-45698918D01*
X62792252Y-45519987D01*
X63019987Y-45292252D01*
X63198918Y-45024463D01*
X63322168Y-44726912D01*
X63385000Y-44411033D01*
X63385000Y-44088967D01*
X63615000Y-44088967D01*
X63615000Y-44411033D01*
X63677832Y-44726912D01*
X63801082Y-45024463D01*
X63980013Y-45292252D01*
X64207748Y-45519987D01*
X64475537Y-45698918D01*
X64773088Y-45822168D01*
X65088967Y-45885000D01*
X65411033Y-45885000D01*
X65726912Y-45822168D01*
X66024463Y-45698918D01*
X66292252Y-45519987D01*
X66519987Y-45292252D01*
X66698918Y-45024463D01*
X66822168Y-44726912D01*
X66885000Y-44411033D01*
X66885000Y-44088967D01*
X70115000Y-44088967D01*
X70115000Y-44411033D01*
X70177832Y-44726912D01*
X70301082Y-45024463D01*
X70480013Y-45292252D01*
X70707748Y-45519987D01*
X70975537Y-45698918D01*
X70990001Y-45704909D01*
X70990001Y-45712668D01*
X70986324Y-45750000D01*
X70990001Y-45787333D01*
X71000998Y-45898986D01*
X71014180Y-45942442D01*
X71044454Y-46042246D01*
X71115026Y-46174276D01*
X71176339Y-46248985D01*
X71210000Y-46290001D01*
X71238998Y-46313799D01*
X71536196Y-46610997D01*
X71559999Y-46640001D01*
X71675724Y-46734974D01*
X71807753Y-46805546D01*
X71951014Y-46849003D01*
X72062667Y-46860000D01*
X72062675Y-46860000D01*
X72100000Y-46863676D01*
X72137325Y-46860000D01*
X81002678Y-46860000D01*
X81040000Y-46863676D01*
X81077322Y-46860000D01*
X81077333Y-46860000D01*
X81188986Y-46849003D01*
X81332247Y-46805546D01*
X81464276Y-46734974D01*
X81580001Y-46640001D01*
X81603804Y-46610997D01*
X82193592Y-46021209D01*
X82413740Y-46065000D01*
X82706260Y-46065000D01*
X82993158Y-46007932D01*
X83263411Y-45895990D01*
X83506632Y-45733475D01*
X83713475Y-45526632D01*
X83831100Y-45350594D01*
X84002412Y-45580269D01*
X84218645Y-45775178D01*
X84468748Y-45924157D01*
X84743109Y-46021481D01*
X84973000Y-45900814D01*
X84973000Y-44707000D01*
X85227000Y-44707000D01*
X85227000Y-45900814D01*
X85456891Y-46021481D01*
X85731252Y-45924157D01*
X85981355Y-45775178D01*
X86197588Y-45580269D01*
X86371641Y-45346920D01*
X86496825Y-45084099D01*
X86541476Y-44936890D01*
X86420155Y-44707000D01*
X85227000Y-44707000D01*
X84973000Y-44707000D01*
X84953000Y-44707000D01*
X84953000Y-44453000D01*
X84973000Y-44453000D01*
X84973000Y-44433000D01*
X85227000Y-44433000D01*
X85227000Y-44453000D01*
X86420155Y-44453000D01*
X86541476Y-44223110D01*
X86496825Y-44075901D01*
X86371641Y-43813080D01*
X86197588Y-43579731D01*
X85981355Y-43384822D01*
X85864466Y-43315195D01*
X86046632Y-43193475D01*
X86253475Y-42986632D01*
X86415990Y-42743411D01*
X86527932Y-42473158D01*
X86585000Y-42186260D01*
X86585000Y-41893740D01*
X86527932Y-41606842D01*
X86415990Y-41336589D01*
X86253475Y-41093368D01*
X86121620Y-40961513D01*
X86194180Y-40939502D01*
X86304494Y-40880537D01*
X86401185Y-40801185D01*
X86480537Y-40704494D01*
X86539502Y-40594180D01*
X86575812Y-40474482D01*
X86588072Y-40350000D01*
X86588072Y-38650000D01*
X86575812Y-38525518D01*
X86539502Y-38405820D01*
X86480537Y-38295506D01*
X86401185Y-38198815D01*
X86304494Y-38119463D01*
X86194180Y-38060498D01*
X86074482Y-38024188D01*
X85950000Y-38011928D01*
X84250000Y-38011928D01*
X84125518Y-38024188D01*
X84005820Y-38060498D01*
X83895506Y-38119463D01*
X83798815Y-38198815D01*
X83719463Y-38295506D01*
X83660498Y-38405820D01*
X83638487Y-38478380D01*
X83506632Y-38346525D01*
X83263411Y-38184010D01*
X82993158Y-38072068D01*
X82706260Y-38015000D01*
X82413740Y-38015000D01*
X82126842Y-38072068D01*
X81856589Y-38184010D01*
X81613368Y-38346525D01*
X81406525Y-38553368D01*
X81244010Y-38796589D01*
X81132068Y-39066842D01*
X81075000Y-39353740D01*
X81075000Y-39646260D01*
X81132068Y-39933158D01*
X81244010Y-40203411D01*
X81406525Y-40446632D01*
X81613368Y-40653475D01*
X81787760Y-40770000D01*
X81613368Y-40886525D01*
X81406525Y-41093368D01*
X81244010Y-41336589D01*
X81132068Y-41606842D01*
X81075000Y-41893740D01*
X81075000Y-42186260D01*
X81132068Y-42473158D01*
X81244010Y-42743411D01*
X81406525Y-42986632D01*
X81613368Y-43193475D01*
X81787760Y-43310000D01*
X81613368Y-43426525D01*
X81406525Y-43633368D01*
X81244010Y-43876589D01*
X81132068Y-44146842D01*
X81075000Y-44433740D01*
X81075000Y-44726260D01*
X81118791Y-44946408D01*
X80725199Y-45340000D01*
X72972239Y-45340000D01*
X73019987Y-45292252D01*
X73198918Y-45024463D01*
X73322168Y-44726912D01*
X73385000Y-44411033D01*
X73385000Y-44088967D01*
X73322168Y-43773088D01*
X73198918Y-43475537D01*
X73019987Y-43207748D01*
X72792252Y-42980013D01*
X72524463Y-42801082D01*
X72226912Y-42677832D01*
X71911033Y-42615000D01*
X71588967Y-42615000D01*
X71273088Y-42677832D01*
X70975537Y-42801082D01*
X70707748Y-42980013D01*
X70480013Y-43207748D01*
X70301082Y-43475537D01*
X70177832Y-43773088D01*
X70115000Y-44088967D01*
X66885000Y-44088967D01*
X66822168Y-43773088D01*
X66698918Y-43475537D01*
X66519987Y-43207748D01*
X66292252Y-42980013D01*
X66024463Y-42801082D01*
X65726912Y-42677832D01*
X65411033Y-42615000D01*
X65088967Y-42615000D01*
X64773088Y-42677832D01*
X64475537Y-42801082D01*
X64207748Y-42980013D01*
X63980013Y-43207748D01*
X63801082Y-43475537D01*
X63677832Y-43773088D01*
X63615000Y-44088967D01*
X63385000Y-44088967D01*
X63322168Y-43773088D01*
X63198918Y-43475537D01*
X63019987Y-43207748D01*
X62792252Y-42980013D01*
X62524463Y-42801082D01*
X62226912Y-42677832D01*
X61911033Y-42615000D01*
X61588967Y-42615000D01*
X61273088Y-42677832D01*
X60975537Y-42801082D01*
X60707748Y-42980013D01*
X60480013Y-43207748D01*
X60301082Y-43475537D01*
X60177832Y-43773088D01*
X60115000Y-44088967D01*
X56885000Y-44088967D01*
X56822168Y-43773088D01*
X56698918Y-43475537D01*
X56519987Y-43207748D01*
X56292252Y-42980013D01*
X56024463Y-42801082D01*
X55726912Y-42677832D01*
X55411033Y-42615000D01*
X55088967Y-42615000D01*
X54773088Y-42677832D01*
X54475537Y-42801082D01*
X54207748Y-42980013D01*
X53980013Y-43207748D01*
X53801082Y-43475537D01*
X53677832Y-43773088D01*
X53615000Y-44088967D01*
X53385000Y-44088967D01*
X53322168Y-43773088D01*
X53198918Y-43475537D01*
X53019987Y-43207748D01*
X52792252Y-42980013D01*
X52524463Y-42801082D01*
X52226912Y-42677832D01*
X51911033Y-42615000D01*
X51588967Y-42615000D01*
X51273088Y-42677832D01*
X50975537Y-42801082D01*
X50707748Y-42980013D01*
X50480013Y-43207748D01*
X50301082Y-43475537D01*
X50177832Y-43773088D01*
X50115000Y-44088967D01*
X46885000Y-44088967D01*
X46822168Y-43773088D01*
X46698918Y-43475537D01*
X46519987Y-43207748D01*
X46292252Y-42980013D01*
X46024463Y-42801082D01*
X45726912Y-42677832D01*
X45411033Y-42615000D01*
X45088967Y-42615000D01*
X44773088Y-42677832D01*
X44475537Y-42801082D01*
X44207748Y-42980013D01*
X43980013Y-43207748D01*
X43801082Y-43475537D01*
X43677832Y-43773088D01*
X43615000Y-44088967D01*
X41516053Y-44088967D01*
X41598354Y-44054877D01*
X41978136Y-43801114D01*
X42301114Y-43478136D01*
X42554877Y-43098354D01*
X42729671Y-42676363D01*
X42818780Y-42228380D01*
X42818780Y-41820629D01*
X46678812Y-41820629D01*
X46678812Y-42179371D01*
X46748799Y-42531221D01*
X46886084Y-42862656D01*
X47085391Y-43160940D01*
X47339060Y-43414609D01*
X47637344Y-43613916D01*
X47968779Y-43751201D01*
X48320629Y-43821188D01*
X48679371Y-43821188D01*
X49031221Y-43751201D01*
X49362656Y-43613916D01*
X49660940Y-43414609D01*
X49914609Y-43160940D01*
X50113916Y-42862656D01*
X50251201Y-42531221D01*
X50321188Y-42179371D01*
X50321188Y-41820629D01*
X56678812Y-41820629D01*
X56678812Y-42179371D01*
X56748799Y-42531221D01*
X56886084Y-42862656D01*
X57085391Y-43160940D01*
X57339060Y-43414609D01*
X57637344Y-43613916D01*
X57968779Y-43751201D01*
X58320629Y-43821188D01*
X58679371Y-43821188D01*
X59031221Y-43751201D01*
X59362656Y-43613916D01*
X59660940Y-43414609D01*
X59914609Y-43160940D01*
X60113916Y-42862656D01*
X60251201Y-42531221D01*
X60321188Y-42179371D01*
X60321188Y-41820629D01*
X66678812Y-41820629D01*
X66678812Y-42179371D01*
X66748799Y-42531221D01*
X66886084Y-42862656D01*
X67085391Y-43160940D01*
X67339060Y-43414609D01*
X67637344Y-43613916D01*
X67968779Y-43751201D01*
X68320629Y-43821188D01*
X68679371Y-43821188D01*
X69031221Y-43751201D01*
X69362656Y-43613916D01*
X69660940Y-43414609D01*
X69914609Y-43160940D01*
X70113916Y-42862656D01*
X70251201Y-42531221D01*
X70321188Y-42179371D01*
X70321188Y-41820629D01*
X70312415Y-41776521D01*
X74230979Y-41776521D01*
X74230979Y-42223479D01*
X74318176Y-42661849D01*
X74489220Y-43074785D01*
X74737536Y-43446417D01*
X75053583Y-43762464D01*
X75425215Y-44010780D01*
X75838151Y-44181824D01*
X76276521Y-44269021D01*
X76723479Y-44269021D01*
X77161849Y-44181824D01*
X77574785Y-44010780D01*
X77946417Y-43762464D01*
X78262464Y-43446417D01*
X78510780Y-43074785D01*
X78681824Y-42661849D01*
X78769021Y-42223479D01*
X78769021Y-41776521D01*
X78681824Y-41338151D01*
X78510780Y-40925215D01*
X78262464Y-40553583D01*
X77946417Y-40237536D01*
X77574785Y-39989220D01*
X77161849Y-39818176D01*
X76723479Y-39730979D01*
X76276521Y-39730979D01*
X75838151Y-39818176D01*
X75425215Y-39989220D01*
X75053583Y-40237536D01*
X74737536Y-40553583D01*
X74489220Y-40925215D01*
X74318176Y-41338151D01*
X74230979Y-41776521D01*
X70312415Y-41776521D01*
X70251201Y-41468779D01*
X70113916Y-41137344D01*
X69914609Y-40839060D01*
X69660940Y-40585391D01*
X69362656Y-40386084D01*
X69031221Y-40248799D01*
X68679371Y-40178812D01*
X68320629Y-40178812D01*
X67968779Y-40248799D01*
X67637344Y-40386084D01*
X67339060Y-40585391D01*
X67085391Y-40839060D01*
X66886084Y-41137344D01*
X66748799Y-41468779D01*
X66678812Y-41820629D01*
X60321188Y-41820629D01*
X60251201Y-41468779D01*
X60113916Y-41137344D01*
X59914609Y-40839060D01*
X59660940Y-40585391D01*
X59362656Y-40386084D01*
X59031221Y-40248799D01*
X58679371Y-40178812D01*
X58320629Y-40178812D01*
X57968779Y-40248799D01*
X57637344Y-40386084D01*
X57339060Y-40585391D01*
X57085391Y-40839060D01*
X56886084Y-41137344D01*
X56748799Y-41468779D01*
X56678812Y-41820629D01*
X50321188Y-41820629D01*
X50251201Y-41468779D01*
X50113916Y-41137344D01*
X49914609Y-40839060D01*
X49660940Y-40585391D01*
X49362656Y-40386084D01*
X49031221Y-40248799D01*
X48679371Y-40178812D01*
X48320629Y-40178812D01*
X47968779Y-40248799D01*
X47637344Y-40386084D01*
X47339060Y-40585391D01*
X47085391Y-40839060D01*
X46886084Y-41137344D01*
X46748799Y-41468779D01*
X46678812Y-41820629D01*
X42818780Y-41820629D01*
X42818780Y-41771620D01*
X42729671Y-41323637D01*
X42554877Y-40901646D01*
X42301114Y-40521864D01*
X41978136Y-40198886D01*
X41598354Y-39945123D01*
X41176363Y-39770329D01*
X40728380Y-39681220D01*
X40271620Y-39681220D01*
X39823637Y-39770329D01*
X39401646Y-39945123D01*
X39021864Y-40198886D01*
X38698886Y-40521864D01*
X38445123Y-40901646D01*
X38270329Y-41323637D01*
X38181220Y-41771620D01*
X37160000Y-41771620D01*
X37160000Y-39588967D01*
X43615000Y-39588967D01*
X43615000Y-39911033D01*
X43677832Y-40226912D01*
X43801082Y-40524463D01*
X43980013Y-40792252D01*
X44207748Y-41019987D01*
X44475537Y-41198918D01*
X44773088Y-41322168D01*
X45088967Y-41385000D01*
X45411033Y-41385000D01*
X45726912Y-41322168D01*
X46024463Y-41198918D01*
X46292252Y-41019987D01*
X46519987Y-40792252D01*
X46698918Y-40524463D01*
X46822168Y-40226912D01*
X46885000Y-39911033D01*
X46885000Y-39588967D01*
X50115000Y-39588967D01*
X50115000Y-39911033D01*
X50177832Y-40226912D01*
X50301082Y-40524463D01*
X50480013Y-40792252D01*
X50707748Y-41019987D01*
X50975537Y-41198918D01*
X51273088Y-41322168D01*
X51588967Y-41385000D01*
X51911033Y-41385000D01*
X52226912Y-41322168D01*
X52524463Y-41198918D01*
X52792252Y-41019987D01*
X53019987Y-40792252D01*
X53198918Y-40524463D01*
X53322168Y-40226912D01*
X53385000Y-39911033D01*
X53385000Y-39588967D01*
X53615000Y-39588967D01*
X53615000Y-39911033D01*
X53677832Y-40226912D01*
X53801082Y-40524463D01*
X53980013Y-40792252D01*
X54207748Y-41019987D01*
X54475537Y-41198918D01*
X54773088Y-41322168D01*
X55088967Y-41385000D01*
X55411033Y-41385000D01*
X55726912Y-41322168D01*
X56024463Y-41198918D01*
X56292252Y-41019987D01*
X56519987Y-40792252D01*
X56698918Y-40524463D01*
X56822168Y-40226912D01*
X56885000Y-39911033D01*
X56885000Y-39588967D01*
X60115000Y-39588967D01*
X60115000Y-39911033D01*
X60177832Y-40226912D01*
X60301082Y-40524463D01*
X60480013Y-40792252D01*
X60707748Y-41019987D01*
X60975537Y-41198918D01*
X61273088Y-41322168D01*
X61588967Y-41385000D01*
X61911033Y-41385000D01*
X62226912Y-41322168D01*
X62524463Y-41198918D01*
X62792252Y-41019987D01*
X63019987Y-40792252D01*
X63198918Y-40524463D01*
X63322168Y-40226912D01*
X63385000Y-39911033D01*
X63385000Y-39588967D01*
X63615000Y-39588967D01*
X63615000Y-39911033D01*
X63677832Y-40226912D01*
X63801082Y-40524463D01*
X63980013Y-40792252D01*
X64207748Y-41019987D01*
X64475537Y-41198918D01*
X64773088Y-41322168D01*
X65088967Y-41385000D01*
X65411033Y-41385000D01*
X65726912Y-41322168D01*
X66024463Y-41198918D01*
X66292252Y-41019987D01*
X66519987Y-40792252D01*
X66698918Y-40524463D01*
X66822168Y-40226912D01*
X66885000Y-39911033D01*
X66885000Y-39588967D01*
X70115000Y-39588967D01*
X70115000Y-39911033D01*
X70177832Y-40226912D01*
X70301082Y-40524463D01*
X70480013Y-40792252D01*
X70707748Y-41019987D01*
X70975537Y-41198918D01*
X71273088Y-41322168D01*
X71588967Y-41385000D01*
X71911033Y-41385000D01*
X72226912Y-41322168D01*
X72524463Y-41198918D01*
X72792252Y-41019987D01*
X73019987Y-40792252D01*
X73198918Y-40524463D01*
X73322168Y-40226912D01*
X73385000Y-39911033D01*
X73385000Y-39588967D01*
X73322168Y-39273088D01*
X73198918Y-38975537D01*
X73019987Y-38707748D01*
X72792252Y-38480013D01*
X72524463Y-38301082D01*
X72226912Y-38177832D01*
X71911033Y-38115000D01*
X71588967Y-38115000D01*
X71273088Y-38177832D01*
X70975537Y-38301082D01*
X70707748Y-38480013D01*
X70480013Y-38707748D01*
X70301082Y-38975537D01*
X70177832Y-39273088D01*
X70115000Y-39588967D01*
X66885000Y-39588967D01*
X66822168Y-39273088D01*
X66698918Y-38975537D01*
X66519987Y-38707748D01*
X66292252Y-38480013D01*
X66024463Y-38301082D01*
X65726912Y-38177832D01*
X65411033Y-38115000D01*
X65088967Y-38115000D01*
X64773088Y-38177832D01*
X64475537Y-38301082D01*
X64207748Y-38480013D01*
X63980013Y-38707748D01*
X63801082Y-38975537D01*
X63677832Y-39273088D01*
X63615000Y-39588967D01*
X63385000Y-39588967D01*
X63322168Y-39273088D01*
X63198918Y-38975537D01*
X63019987Y-38707748D01*
X62792252Y-38480013D01*
X62524463Y-38301082D01*
X62226912Y-38177832D01*
X61911033Y-38115000D01*
X61588967Y-38115000D01*
X61273088Y-38177832D01*
X60975537Y-38301082D01*
X60707748Y-38480013D01*
X60480013Y-38707748D01*
X60301082Y-38975537D01*
X60177832Y-39273088D01*
X60115000Y-39588967D01*
X56885000Y-39588967D01*
X56822168Y-39273088D01*
X56698918Y-38975537D01*
X56519987Y-38707748D01*
X56292252Y-38480013D01*
X56024463Y-38301082D01*
X55726912Y-38177832D01*
X55411033Y-38115000D01*
X55088967Y-38115000D01*
X54773088Y-38177832D01*
X54475537Y-38301082D01*
X54207748Y-38480013D01*
X53980013Y-38707748D01*
X53801082Y-38975537D01*
X53677832Y-39273088D01*
X53615000Y-39588967D01*
X53385000Y-39588967D01*
X53322168Y-39273088D01*
X53198918Y-38975537D01*
X53019987Y-38707748D01*
X52792252Y-38480013D01*
X52524463Y-38301082D01*
X52226912Y-38177832D01*
X51911033Y-38115000D01*
X51588967Y-38115000D01*
X51273088Y-38177832D01*
X50975537Y-38301082D01*
X50707748Y-38480013D01*
X50480013Y-38707748D01*
X50301082Y-38975537D01*
X50177832Y-39273088D01*
X50115000Y-39588967D01*
X46885000Y-39588967D01*
X46822168Y-39273088D01*
X46698918Y-38975537D01*
X46519987Y-38707748D01*
X46292252Y-38480013D01*
X46024463Y-38301082D01*
X45726912Y-38177832D01*
X45411033Y-38115000D01*
X45088967Y-38115000D01*
X44773088Y-38177832D01*
X44475537Y-38301082D01*
X44207748Y-38480013D01*
X43980013Y-38707748D01*
X43801082Y-38975537D01*
X43677832Y-39273088D01*
X43615000Y-39588967D01*
X37160000Y-39588967D01*
X37160000Y-36667275D01*
X37160666Y-36660487D01*
X37165301Y-36660000D01*
X87840000Y-36660000D01*
X87840001Y-47340000D01*
G37*
%TD.AperFunction*%
%TD*%
M02*
