M48
; DRILL file {KiCad 5.1.7-a382d34a8~88~ubuntu18.04.1} date Sun Jun  6 23:34:12 2021
; FORMAT={-:-/ absolute / inch / decimal}
; #@! TF.CreationDate,2021-06-06T23:34:12+02:00
; #@! TF.GenerationSoftware,Kicad,Pcbnew,5.1.7-a382d34a8~88~ubuntu18.04.1
FMAT,2
INCH
T1C0.0157
T2C0.0394
T3C0.0433
T4C0.0866
T5C0.1260
%
G90
G05
T1
X1.7126Y-1.4606
X2.1024Y-1.4606
X2.4764Y-1.4606
X2.8425Y-1.4606
X2.8799Y-1.4606
X3.1516Y-1.4606
X3.2087Y-1.4606
T2
X3.2504Y-1.5551
X3.2504Y-1.6551
X3.2504Y-1.7551
X3.3504Y-1.5551
X3.3504Y-1.6551
X3.3504Y-1.7551
T3
X2.1752Y-1.565
X2.1752Y-1.7421
X2.4311Y-1.565
X2.4311Y-1.7421
X1.7815Y-1.565
X1.7815Y-1.7421
X2.0374Y-1.565
X2.0374Y-1.7421
X2.5689Y-1.565
X2.5689Y-1.7421
X2.8248Y-1.565
X2.8248Y-1.7421
T4
X2.3031Y-1.6535
X2.6969Y-1.6535
X1.9094Y-1.6535
T5
X1.5947Y-1.6542
X3.0117Y-1.6542
T0
M30
